<svg viewBox="0 0 1200 900" xmlns="http://www.w3.org/2000/svg">
  <style>
    @keyframes float { 0%, 100% { transform: translateY(0); } 50% { transform: translateY(-8px); } }
    @keyframes glow { 0%, 100% { opacity: 0.5; } 50% { opacity: 1; } }
    @keyframes draw { from { stroke-dashoffset: 1000; } to { stroke-dashoffset: 0; } }
    .card { animation: float 4s ease-in-out infinite; }
    .card:nth-child(1) { animation-delay: 0s; }
    .card:nth-child(2) { animation-delay: 0.8s; }
    .card:nth-child(3) { animation-delay: 1.6s; }
    .card:nth-child(4) { animation-delay: 2.4s; }
    .card:nth-child(5) { animation-delay: 3.2s; }
    .glow { animation: glow 2s ease-in-out infinite; }
  </style>
  
  <defs>
    <linearGradient id="bg1" x1="0%" y1="0%" x2="100%" y2="100%">
      <stop offset="0%" style="stop-color:#f8fafc"/>
      <stop offset="100%" style="stop-color:#e0e7ff"/>
    </linearGradient>
    <linearGradient id="blue" x1="0%" y1="0%" x2="100%" y2="100%">
      <stop offset="0%" style="stop-color:#38bdf8"/>
      <stop offset="100%" style="stop-color:#0ea5e9"/>
    </linearGradient>
    <linearGradient id="purple" x1="0%" y1="0%" x2="100%" y2="100%">
      <stop offset="0%" style="stop-color:#a78bfa"/>
      <stop offset="100%" style="stop-color:#8b5cf6"/>
    </linearGradient>
    <filter id="shadow">
      <feDropShadow dx="0" dy="4" stdDeviation="8" flood-opacity="0.1"/>
    </filter>
  </defs>
  
  <rect width="1200" height="900" fill="url(#bg1)"/>
  
  <text x="600" y="100" font-family="system-ui,sans-serif" font-size="42" font-weight="700" fill="#1e293b" text-anchor="middle">Popular 3D Rendering Tools</text>
  <line x1="300" y1="130" x2="900" y2="130" stroke="url(#blue)" stroke-width="4"/>
  
  <!-- Card 1: KeyShot -->
  <g class="card" transform="translate(120, 220)">
    <rect width="200" height="500" rx="16" fill="#fff" filter="url(#shadow)"/>
    <rect x="8" y="8" width="184" height="484" rx="12" fill="none" stroke="#e2e8f0" stroke-width="2"/>
    
    <g transform="translate(100, 120)">
      <circle r="60" fill="#dbeafe" opacity="0.5" class="glow"/>
      <rect x="-35" y="-22" width="70" height="44" rx="4" fill="none" stroke="url(#blue)" stroke-width="3"/>
      <circle r="18" fill="none" stroke="url(#blue)" stroke-width="3"/>
      <circle r="10" fill="url(#blue)" opacity="0.4"/>
      <line x1="28" y1="-38" x2="28" y2="-24" stroke="url(#blue)" stroke-width="2.5"/>
      <circle cx="28" cy="-42" r="6" fill="url(#blue)"/>
    </g>
    
    <text x="100" y="250" font-family="system-ui,sans-serif" font-size="24" font-weight="600" fill="#1e293b" text-anchor="middle">KeyShot</text>
    <text x="100" y="290" font-family="system-ui,sans-serif" font-size="16" fill="#64748b" text-anchor="middle">Fast photoreal</text>
    <text x="100" y="315" font-family="system-ui,sans-serif" font-size="16" fill="#64748b" text-anchor="middle">output</text>
    
    <rect x="30" y="360" width="140" height="60" rx="8" fill="#f1f5f9"/>
    <text x="100" y="385" font-family="system-ui,sans-serif" font-size="13" font-weight="500" fill="#475569" text-anchor="middle">Manufacturing</text>
    <text x="100" y="405" font-family="system-ui,sans-serif" font-size="13" fill="#64748b" text-anchor="middle">Hardware</text>
  </g>
  
  <!-- Card 2: Blender -->
  <g class="card" transform="translate(360, 220)">
    <rect width="200" height="500" rx="16" fill="#fff" filter="url(#shadow)"/>
    <rect x="8" y="8" width="184" height="484" rx="12" fill="none" stroke="#e2e8f0" stroke-width="2"/>
    
    <g transform="translate(100, 120)">
      <circle r="60" fill="#dbeafe" opacity="0.5" class="glow"/>
      <path d="M0,-30 L26,-15 L26,15 L0,30 L-26,15 L-26,-15 Z" fill="none" stroke="url(#blue)" stroke-width="3"/>
      <line x1="0" y1="-30" x2="0" y2="30" stroke="url(#blue)" stroke-width="2" opacity="0.6"/>
      <line x1="-26" y1="-15" x2="26" y2="15" stroke="url(#blue)" stroke-width="2" opacity="0.6"/>
      <ellipse rx="45" ry="18" fill="none" stroke="url(#purple)" stroke-width="2" stroke-dasharray="4 3" opacity="0.7"/>
      <circle cx="45" r="4" fill="url(#purple)"/>
    </g>
    
    <text x="100" y="250" font-family="system-ui,sans-serif" font-size="24" font-weight="600" fill="#1e293b" text-anchor="middle">Blender</text>
    <text x="100" y="290" font-family="system-ui,sans-serif" font-size="16" fill="#64748b" text-anchor="middle">Designer/artist</text>
    <text x="100" y="315" font-family="system-ui,sans-serif" font-size="16" fill="#64748b" text-anchor="middle">workflows</text>
    
    <rect x="30" y="360" width="140" height="60" rx="8" fill="#f1f5f9"/>
    <text x="100" y="385" font-family="system-ui,sans-serif" font-size="13" font-weight="500" fill="#475569" text-anchor="middle">Freelancers</text>
    <text x="100" y="405" font-family="system-ui,sans-serif" font-size="13" fill="#64748b" text-anchor="middle">Designers</text>
  </g>
  
  <!-- Card 3: Substance -->
  <g class="card" transform="translate(600, 220)">
    <rect width="200" height="500" rx="16" fill="#fff" filter="url(#shadow)"/>
    <rect x="8" y="8" width="184" height="484" rx="12" fill="none" stroke="#e2e8f0" stroke-width="2"/>
    
    <g transform="translate(100, 120)">
      <circle r="60" fill="#ede9fe" opacity="0.5" class="glow"/>
      <circle cx="-22" cy="-22" r="16" fill="none" stroke="url(#purple)" stroke-width="3"/>
      <circle cx="-22" cy="-22" r="9" fill="url(#purple)" opacity="0.3"/>
      <circle cx="22" cy="-22" r="16" fill="none" stroke="url(#blue)" stroke-width="3"/>
      <circle cx="22" cy="-22" r="9" fill="url(#blue)" opacity="0.3"/>
      <circle cx="-22" cy="22" r="16" fill="none" stroke="url(#blue)" stroke-width="3"/>
      <circle cx="-22" cy="22" r="9" fill="url(#blue)" opacity="0.3"/>
      <circle cx="22" cy="22" r="16" fill="none" stroke="url(#purple)" stroke-width="3"/>
      <circle cx="22" cy="22" r="9" fill="url(#purple)" opacity="0.3"/>
      <line x1="-40" x2="40" stroke="url(#purple)" stroke-width="1.5" opacity="0.4"/>
      <line y1="-40" y2="40" stroke="url(#purple)" stroke-width="1.5" opacity="0.4"/>
    </g>
    
    <text x="100" y="250" font-family="system-ui,sans-serif" font-size="24" font-weight="600" fill="#1e293b" text-anchor="middle">Substance</text>
    <text x="100" y="290" font-family="system-ui,sans-serif" font-size="16" fill="#64748b" text-anchor="middle">Texturing &amp;</text>
    <text x="100" y="315" font-family="system-ui,sans-serif" font-size="16" fill="#64748b" text-anchor="middle">PBR accuracy</text>
    
    <rect x="30" y="360" width="140" height="60" rx="8" fill="#f1f5f9"/>
    <text x="100" y="385" font-family="system-ui,sans-serif" font-size="13" font-weight="500" fill="#475569" text-anchor="middle">Product</text>
    <text x="100" y="405" font-family="system-ui,sans-serif" font-size="13" fill="#64748b" text-anchor="middle">Fashion</text>
  </g>
  
  <!-- Card 4: Omniverse -->
  <g class="card" transform="translate(840, 220)">
    <rect width="200" height="500" rx="16" fill="#fff" filter="url(#shadow)"/>
    <rect x="8" y="8" width="184" height="484" rx="12" fill="none" stroke="#e2e8f0" stroke-width="2"/>
    
    <g transform="translate(100, 120)">
      <circle r="60" fill="#dbeafe" opacity="0.5" class="glow"/>
      <ellipse cx="-15" cy="-10" rx="20" ry="13" fill="url(#blue)" opacity="0.2"/>
      <ellipse cx="15" cy="-10" rx="20" ry="13" fill="url(#blue)" opacity="0.2"/>
      <ellipse cy="-18" rx="16" ry="10" fill="url(#blue)" opacity="0.2"/>
      <path d="M-32,-10 Q-32,5 -15,10 L15,10 Q32,5 32,-10" fill="url(#blue)" opacity="0.3"/>
      <path d="M-32,-10 Q-32,5 -15,10 L15,10 Q32,5 32,-10" fill="none" stroke="url(#blue)" stroke-width="3"/>
      <circle cx="-30" cy="26" r="6" fill="url(#purple)" opacity="0.9"/>
      <circle cy="32" r="6" fill="url(#purple)" opacity="0.9"/>
      <circle cx="30" cy="26" r="6" fill="url(#purple)" opacity="0.9"/>
      <line x1="-30" y1="26" y2="10" stroke="url(#purple)" stroke-width="2" opacity="0.5"/>
      <line y1="32" y2="10" stroke="url(#purple)" stroke-width="2" opacity="0.5"/>
      <line x1="30" y1="26" y2="10" stroke="url(#purple)" stroke-width="2" opacity="0.5"/>
    </g>
    
    <text x="100" y="250" font-family="system-ui,sans-serif" font-size="24" font-weight="600" fill="#1e293b" text-anchor="middle">Omniverse</text>
    <text x="100" y="290" font-family="system-ui,sans-serif" font-size="16" fill="#64748b" text-anchor="middle">Real-time</text>
    <text x="100" y="315" font-family="system-ui,sans-serif" font-size="16" fill="#64748b" text-anchor="middle">pipelines</text>
    
    <rect x="30" y="360" width="140" height="60" rx="8" fill="#f1f5f9"/>
    <text x="100" y="385" font-family="system-ui,sans-serif" font-size="13" font-weight="500" fill="#475569" text-anchor="middle">Enterprise</text>
    <text x="100" y="405" font-family="system-ui,sans-serif" font-size="13" fill="#64748b" text-anchor="middle">Collaboration</text>
  </g>
  
  <!-- Card 5: V-Ray -->
  <g class="card" transform="translate(1080, 220)">
    <rect width="200" height="500" rx="16" fill="#fff" filter="url(#shadow)"/>
    <rect x="8" y="8" width="184" height="484" rx="12" fill="none" stroke="#e2e8f0" stroke-width="2"/>
    
    <g transform="translate(100, 120)">
      <circle r="60" fill="#ede9fe" opacity="0.5" class="glow"/>
      <circle cy="-26" r="12" fill="url(#purple)" opacity="0.7"/>
      <circle cy="-26" r="8" fill="url(#purple)"/>
      <line x1="0" y1="-14" x2="-26" y2="16" stroke="url(#purple)" stroke-width="3.5" opacity="0.8"/>
      <line x1="0" y1="-14" y2="26" stroke="url(#blue)" stroke-width="3.5" opacity="0.8"/>
      <line x1="0" y1="-14" x2="26" y2="16" stroke="url(#purple)" stroke-width="3.5" opacity="0.8"/>
      <circle cx="-26" cy="16" r="5" fill="url(#blue)" opacity="0.8"/>
      <circle cy="26" r="5" fill="url(#purple)" opacity="0.8"/>
      <circle cx="26" cy="16" r="5" fill="url(#blue)" opacity="0.8"/>
      <line x1="-26" y1="16" x2="-36" y2="38" stroke="url(#blue)" stroke-width="2.5" opacity="0.5"/>
      <line y1="26" y2="44" stroke="url(#purple)" stroke-width="2.5" opacity="0.5"/>
      <line x1="26" y1="16" x2="36" y2="38" stroke="url(#blue)" stroke-width="2.5" opacity="0.5"/>
    </g>
    
    <text x="100" y="250" font-family="system-ui,sans-serif" font-size="24" font-weight="600" fill="#1e293b" text-anchor="middle">V-Ray</text>
    <text x="100" y="290" font-family="system-ui,sans-serif" font-size="16" fill="#64748b" text-anchor="middle">Studio-grade</text>
    <text x="100" y="315" font-family="system-ui,sans-serif" font-size="16" fill="#64748b" text-anchor="middle">realism</text>
    
    <rect x="30" y="360" width="140" height="60" rx="8" fill="#f1f5f9"/>
    <text x="100" y="385" font-family="system-ui,sans-serif" font-size="13" font-weight="500" fill="#475569" text-anchor="middle">Architectural</text>
    <text x="100" y="405" font-family="system-ui,sans-serif" font-size="13" fill="#64748b" text-anchor="middle">Studio renders</text>
  </g>
  
  <path d="M200 780 Q600 820 1000 780" fill="none" stroke="url(#blue)" stroke-width="2" stroke-dasharray="10 5" opacity="0.4"/>
  
</svg>