<?xml version="1.0" encoding="UTF-8"?>
<svg version="1.1" xmlns="http://www.w3.org/2000/svg" width="630" height="354">
<path d="M0 0 C2.54729404 0.00850475 5.09232973 -0.02038107 7.6394043 -0.05200195 C41.84232021 -0.19644481 72.87345139 13.68781384 98.74682617 35.44604492 C99.6962207 36.21174805 99.6962207 36.21174805 100.66479492 36.99291992 C105.21847556 40.73236627 109.00867399 44.90062641 112.74682617 49.44604492 C113.15449219 49.9360498 113.5621582 50.42605469 113.98217773 50.9309082 C139.74689259 82.05777476 151.86121539 120.33696721 148.28027344 160.72753906 C144.243477 198.97674285 124.59557097 235.15617568 94.74682617 259.44604492 C77.12281361 273.63446646 56.72189999 283.20530177 34.74682617 288.44604492 C34.03349121 288.62103516 33.32015625 288.79602539 32.58520508 288.97631836 C-4.01731067 297.57165454 -43.42522411 289.20216886 -75.12158203 269.80249023 C-80.4950425 266.4053493 -85.45781653 262.62186781 -90.25317383 258.44604492 C-91.4984082 257.36516602 -91.4984082 257.36516602 -92.76879883 256.26245117 C-95.29751967 254.02461079 -97.78160548 251.74674922 -100.25317383 249.44604492 C-100.9930957 248.77186523 -101.73301758 248.09768555 -102.49536133 247.40307617 C-127.22212916 223.95224476 -142.6434923 187.38938976 -143.55395508 153.50073242 C-143.57324408 151.1075778 -143.57676242 148.71425159 -143.56567383 146.32104492 C-143.56075928 145.05421875 -143.55584473 143.78739258 -143.55078125 142.48217773 C-143.0465301 101.80074668 -125.5641047 66.46087207 -96.82348633 38.04370117 C-81.53639937 23.78410695 -63.22548281 13.13379028 -43.44067383 6.44604492 C-42.65490967 6.17961182 -41.86914551 5.91317871 -41.05957031 5.63867188 C-27.45211358 1.33652901 -14.18439826 -0.07180945 0 0 Z M-43.99926758 107.37963867 C-54.33500039 120.29259317 -58.80198954 136.0529618 -57.25317383 152.44604492 C-54.93962993 167.40915509 -48.94187756 178.71943798 -38.25317383 189.44604492 C-37.44106445 190.29295898 -37.44106445 190.29295898 -36.61254883 191.15698242 C-26.17287453 201.12212607 -11.26983781 205.24497438 2.80932617 205.82104492 C19.30462281 205.11449185 34.62300888 198.62675644 46.41088867 187.08666992 C59.23007681 172.59541376 62.7925422 156.69755923 61.93774414 137.87426758 C60.86804422 124.2691072 53.81576523 110.62654818 43.74682617 101.44604492 C16.45251246 79.49192303 -20.10927516 80.92427794 -43.99926758 107.37963867 Z " fill="#619801" transform="translate(243.253173828125,31.553955078125)"/>
<path d="M0 0 C5.41827743 0.55864723 10.43035915 1.51322127 15.625 3.1875 C16.64400391 3.50980591 16.64400391 3.50980591 17.68359375 3.83862305 C24.65534884 6.10622196 31.32959391 8.96704973 38 12 C37.34 12.33 36.68 12.66 36 13 C37.2517245 16.7551735 38.73309175 17.51634366 41.875 19.875 C62.27049127 36.25479869 74.91582881 61.17847331 78 87 C79.21625334 101.80122896 77.52515311 115.63185362 74 130 C73.34 130 72.68 130 72 130 C71.87625 131.216875 71.7525 132.43375 71.625 133.6875 C71.21108694 137.06479059 70.45426549 139.89756695 69 143 C68.34 143 67.68 143 67 143 C66.7525 143.825 66.505 144.65 66.25 145.5 C64.40005759 150.67983876 62.05066421 155.42400369 59 160 C58.34 160 57.68 160 57 160 C56.75507813 160.56074219 56.51015625 161.12148437 56.2578125 161.69921875 C45.97235929 180.5132931 21.22531234 193.45327486 1.5625 199.9375 C-2.72409948 201.11505832 -6.57244565 201.24597524 -11 201 C-5.98866778 197.65911185 -1.2027874 195.99625014 4.625 194.6875 C14.06820106 192.41545162 22.81187829 188.51443491 30.31640625 182.296875 C32.11920767 180.90817414 33.96613932 180.00866262 36 179 C40.25491945 175.10978793 43.98890371 170.70745493 47.81640625 166.40234375 C50 164 50 164 52.08203125 162.01953125 C54.90327531 159.04889342 56.64735111 155.6063032 58.6328125 152.046875 C59.30957031 151.03367188 59.30957031 151.03367188 60 150 C60.66 150 61.32 150 62 150 C62.18175781 149.35933594 62.36351562 148.71867188 62.55078125 148.05859375 C62.80214844 147.19363281 63.05351562 146.32867187 63.3125 145.4375 C63.55613281 144.59058594 63.79976563 143.74367187 64.05078125 142.87109375 C65 140 65 140 66.47265625 136.6640625 C68.08905418 132.78636107 69.15587283 129.01171063 70.125 124.9375 C70.37830078 123.9155957 70.37830078 123.9155957 70.63671875 122.87304688 C77.14449051 96.20143112 72.84789612 68.56642684 58.6875 45.125 C45.43488527 25.78577715 28.59588254 12.9633444 6.9609375 4.32421875 C4.28391317 3.12697436 2.24372905 1.86612587 0 0 Z " fill="#99D400" transform="translate(273,34)"/>
<path d="M0 0 C5.41827743 0.55864723 10.43035915 1.51322127 15.625 3.1875 C16.64400391 3.50980591 16.64400391 3.50980591 17.68359375 3.83862305 C24.65534884 6.10622196 31.32959391 8.96704973 38 12 C37.34 12.33 36.68 12.66 36 13 C37.2517245 16.7551735 38.73309175 17.51634366 41.875 19.875 C58.44478682 33.18234175 70.34826818 51.78614546 73 73 C70.58144807 70.82823908 69.3725711 68.95914032 68.203125 65.9375 C67.88819092 65.14617676 67.57325684 64.35485352 67.2487793 63.53955078 C66.91918213 62.70149902 66.58958496 61.86344727 66.25 61 C55.90561427 35.73896744 37.32214843 17.19450967 12.22998047 6.45996094 C10.48046501 5.7314183 8.7209528 5.02701662 6.9609375 4.32421875 C4.28391317 3.12697436 2.24372905 1.86612587 0 0 Z " fill="#9FD900" transform="translate(273,34)"/>
<path d="M0 0 C0.66 0.66 1.32 1.32 2 2 C0.64068359 3.12535156 0.64068359 3.12535156 -0.74609375 4.2734375 C-13.63223873 14.64483827 -13.63223873 14.64483827 -23 28 C-23.474375 28.433125 -23.94875 28.86625 -24.4375 29.3125 C-26.7606936 31.82154909 -27.67002881 34.87745894 -29 38 C-29.99 38.495 -29.99 38.495 -31 39 C-31.73075648 41.3140622 -32.40138258 43.64828869 -33 46 C-33.66 46 -34.32 46 -35 46 C-35.09796875 46.54785156 -35.1959375 47.09570312 -35.296875 47.66015625 C-36.03341879 51.56510827 -36.80661989 55.3782027 -37.98828125 59.17773438 C-41.24095658 69.71048848 -41.47706488 79.47947749 -41.25 90.4375 C-41.22987338 92.15167148 -41.21163366 93.86586619 -41.1953125 95.58007812 C-41.15187528 99.72064137 -41.08320215 103.86005283 -41 108 C-45.78437847 103.21562153 -45.12868284 92.66120173 -45.375 86.125 C-45.0302345 69.55597548 -41.69246599 53.66650122 -34 39 C-33.38318359 37.73736328 -33.38318359 37.73736328 -32.75390625 36.44921875 C-25.22593178 21.78399512 -13.24984948 9.58569357 0 0 Z " fill="#6AA700" transform="translate(186,135)"/>
<path d="M0 0 C0 4.22471422 -1.04959373 6.90071034 -3.8203125 10.10546875 C-17.34771771 22.32598905 -38.74180556 37.05568014 -57.625 37.1875 C-58.73875 37.125625 -59.8525 37.06375 -61 37 C-55.98866778 33.65911185 -51.2027874 31.99625014 -45.375 30.6875 C-35.93179894 28.41545162 -27.18812171 24.51443491 -19.68359375 18.296875 C-17.88079233 16.90817414 -16.03386068 16.00866262 -14 15 C-8.95476462 10.38721337 -4.54383545 5.09820317 0 0 Z " fill="#94CD00" transform="translate(323,198)"/>
<path d="M0 0 C5.41827743 0.55864723 10.43035915 1.51322127 15.625 3.1875 C16.64400391 3.50980591 16.64400391 3.50980591 17.68359375 3.83862305 C24.65534884 6.10622196 31.32959391 8.96704973 38 12 C37.34 12.33 36.68 12.66 36 13 C35.67 13.99 35.34 14.98 35 16 C34.50371094 15.65066406 34.00742187 15.30132812 33.49609375 14.94140625 C28.84070507 11.82309087 25.59372069 10.7584706 20 10 C16.24899261 8.50987378 12.6377382 6.74530257 9 5 C7.27369123 4.2227874 5.54476933 3.4513353 3.8125 2.6875 C3.07644531 2.36136719 2.34039062 2.03523438 1.58203125 1.69921875 C1.05996094 1.46847656 0.53789062 1.23773438 0 1 C0 0.67 0 0.34 0 0 Z " fill="#A1D718" transform="translate(273,34)"/>
<path d="M0 0 C0.66 0.33 1.32 0.66 2 1 C-4.40330768 8.28870331 -11.0848117 15.20114197 -18 22 C-18.66 21.34 -19.32 20.68 -20 20 C-13.76332984 12.76238278 -7.16527521 6.29472776 0 0 Z " fill="#84C025" transform="translate(154,63)"/>
<path d="M0 0 C0.66 0.33 1.32 0.66 2 1 C-5.66666667 8.66666667 -13.33333333 16.33333333 -21 24 C-19.56606341 19.50040587 -17.0672406 16.493897 -13.875 13.125 C-13.38797607 12.60196289 -12.90095215 12.07892578 -12.39916992 11.54003906 C-8.50531041 7.41059434 -4.40445036 3.58413726 0 0 Z " fill="#4F7C00" transform="translate(184,139)"/>
<path d="M0 0 C4.40958108 0.66607439 8.26572186 2.26624729 12.3125 4.0625 C13.28026367 4.48499023 13.28026367 4.48499023 14.26757812 4.91601562 C15.84698358 5.6062743 17.42376493 6.30253198 19 7 C18.01 7.495 18.01 7.495 17 8 C16.67 8.99 16.34 9.98 16 11 C15.09636719 10.43410156 14.19273437 9.86820313 13.26171875 9.28515625 C12.07041365 8.5441082 10.87900181 7.80323173 9.6875 7.0625 C9.09259766 6.68931641 8.49769531 6.31613281 7.88476562 5.93164062 C5.27252256 4.31175806 2.92778827 2.97592942 0 2 C0 1.34 0 0.68 0 0 Z " fill="#82C017" transform="translate(292,39)"/>
<path d="M0 0 C0.99 0.33 1.98 0.66 3 1 C2.01 2.485 2.01 2.485 1 4 C1 4.66 1 5.32 1 6 C-0.57725347 6.70133599 -2.16211333 7.385583 -3.75 8.0625 C-4.63171875 8.44535156 -5.5134375 8.82820312 -6.421875 9.22265625 C-9.15256309 10.04600008 -10.36901347 9.9773992 -13 9 C-12.22914063 8.51789063 -11.45828125 8.03578125 -10.6640625 7.5390625 C-9.66117187 6.90742188 -8.65828125 6.27578125 -7.625 5.625 C-6.62726563 4.99851563 -5.62953125 4.37203125 -4.6015625 3.7265625 C-1.9751981 2.10730288 -1.9751981 2.10730288 0 0 Z " fill="#4D6C20" transform="translate(287,220)"/>
<path d="M0 0 C-3.65646331 3.65646331 -9.36449726 4.79304546 -14.4375 5.19140625 C-16.2927611 5.18809328 -18.14759239 5.10291153 -20 5 C-14.13727753 1.09151835 -7.0644125 -2.44537356 0 0 Z " fill="#85B51D" transform="translate(282,230)"/>
<path d="M0 0 C0.33 0 0.66 0 1 0 C1.8360549 10.33456751 -0.68153408 20.01196602 -3 30 C-3.33 30 -3.66 30 -4 30 C-4.18451025 20.58997722 -4.18451025 20.58997722 -3 16 C-2.34 16 -1.68 16 -1 16 C-0.67 10.72 -0.34 5.44 0 0 Z " fill="#94C73E" transform="translate(390,186)"/>
<path d="M0 0 C0.66 0 1.32 0 2 0 C2.32613281 0.79664063 2.65226562 1.59328125 2.98828125 2.4140625 C5.16848218 7.70056742 7.32988508 12.94083489 10 18 C9.34 18.66 8.68 19.32 8 20 C6.65722268 17.2336466 5.32744772 14.46123789 4 11.6875 C3.42765625 10.50897461 3.42765625 10.50897461 2.84375 9.30664062 C2.4828125 8.54931641 2.121875 7.79199219 1.75 7.01171875 C1.41484375 6.31522217 1.0796875 5.61872559 0.734375 4.90112305 C0 3 0 3 0 0 Z " fill="#7CA441" transform="translate(110,229)"/>
<path d="M0 0 C0.33 0 0.66 0 1 0 C1 6.93 1 13.86 1 21 C1.66 21 2.32 21 3 21 C3 26.28 3 31.56 3 37 C2.67 37 2.34 37 2 37 C-0.67646964 24.76471022 -0.19791617 12.45197224 0 0 Z " fill="#90BC43" transform="translate(100,168)"/>
<path d="M0 0 C0.763125 0.474375 1.52625 0.94875 2.3125 1.4375 C5.21928892 3.12749356 6.70933821 3.28205672 10 3 C10.33 4.32 10.66 5.64 11 7 C6.73052871 6.49770926 2.83163192 6.02851102 -1 4 C-1.33 3.01 -1.66 2.02 -2 1 C-1.34 0.67 -0.68 0.34 0 0 Z " fill="#517715" transform="translate(185,306)"/>
<path d="M0 0 C4.44926052 0.41314562 6.84100104 3.50461527 9.75 6.5625 C10.25660156 7.08263672 10.76320312 7.60277344 11.28515625 8.13867188 C12.53034405 9.41910084 13.76611502 10.70867554 15 12 C14.34 12.66 13.68 13.32 13 14 C10.83031809 11.85714108 8.66416525 9.71091768 6.5 7.5625 C5.87996094 6.95083984 5.25992188 6.33917969 4.62109375 5.70898438 C4.03457031 5.12568359 3.44804687 4.54238281 2.84375 3.94140625 C2.02680664 3.13231812 2.02680664 3.13231812 1.19335938 2.30688477 C0 1 0 1 0 0 Z " fill="#648B2F" transform="translate(134,271)"/>
<path d="M0 0 C0.66 0.33 1.32 0.66 2 1 C0.25719203 2.96516623 -1.49364406 4.92200369 -3.25 6.875 C-3.74113281 7.43058594 -4.23226563 7.98617187 -4.73828125 8.55859375 C-7.26831373 11.35849636 -9.42491005 13.65508521 -13 15 C-11.38989473 10.92623969 -8.46177729 8.23492931 -5.375 5.25 C-4.859375 4.74339844 -4.34375 4.23679688 -3.8125 3.71484375 C-2.54616661 2.47196098 -1.2736856 1.23534724 0 0 Z " fill="#3D5E00" transform="translate(322,197)"/>
<path d="M0 0 C3.93235904 4.49412462 8 9.84759838 8 16 C7.34 16 6.68 16 6 16 C4.9901527 14.08850332 3.99245505 12.17058431 3 10.25 C2.443125 9.18265625 1.88625 8.1153125 1.3125 7.015625 C0 4 0 4 0 0 Z " fill="#92C742" transform="translate(371,103)"/>
<path d="M0 0 C0.66 0 1.32 0 2 0 C1.88490339 1.41750563 1.75746342 2.83401169 1.625 4.25 C1.55539062 5.03890625 1.48578125 5.8278125 1.4140625 6.640625 C0.98492887 9.085877 0.21399362 10.84836903 -1 13 C-1.33 13 -1.66 13 -2 13 C-2.16682272 8.07872966 -2.24828052 4.49656104 0 0 Z " fill="#A1DB00" transform="translate(345,155)"/>
<path d="M0 0 C0 3.54275774 -0.8144815 4.65443136 -2.75 7.5625 C-3.51570313 8.74005859 -3.51570313 8.74005859 -4.296875 9.94140625 C-6.07101919 12.085842 -7.44375456 12.97194477 -10 14 C-8.90073597 12.22611914 -7.79539498 10.45600316 -6.6875 8.6875 C-6.07261719 7.70136719 -5.45773437 6.71523437 -4.82421875 5.69921875 C-3.33675339 3.49827965 -1.9596614 1.76671012 0 0 Z " fill="#506D2D" transform="translate(300,204)"/>
<path d="M0 0 C0.99 0 1.98 0 3 0 C3 4.62 3 9.24 3 14 C2.01 14 1.02 14 0 14 C0 9.38 0 4.76 0 0 Z " fill="#99CB44" transform="translate(389,170)"/>
<path d="M0 0 C2.67868487 1.33934244 2.74954078 2.51692397 3.6875 5.3125 C4.09548828 6.48232422 4.09548828 6.48232422 4.51171875 7.67578125 C5.03839183 10.18274511 4.8178554 11.60132343 4 14 C1.28608722 9.22642128 -0.56561146 5.65611463 0 0 Z " fill="#A9E200" transform="translate(341,93)"/>
<path d="M0 0 C1 3 1 3 0.00390625 5.26171875 C-0.47175781 6.06222656 -0.94742187 6.86273438 -1.4375 7.6875 C-2.14712891 8.89986328 -2.14712891 8.89986328 -2.87109375 10.13671875 C-3.24363281 10.75160156 -3.61617188 11.36648437 -4 12 C-4.66 12 -5.32 12 -6 12 C-4.68139111 7.38486888 -2.78644563 3.90102388 0 0 Z " fill="#A6E000" transform="translate(340,174)"/>
<path d="M0 0 C0.66 0 1.32 0 2 0 C1.49259538 4.39750672 -1.08293314 6.86948922 -4 10 C-4.66 10 -5.32 10 -6 10 C-4.34643078 6.41726669 -2.32019297 3.19026533 0 0 Z " fill="#A3DD00" transform="translate(327,194)"/>
<path d="M0 0 C4.60853797 0.72008406 8.67237409 2.31295939 13 4 C13 4.33 13 4.66 13 5 C7.76824163 5.38281159 4.62197306 4.21854707 0 2 C0 1.34 0 0.68 0 0 Z " fill="#8FC632" transform="translate(292,39)"/>
<path d="M0 0 C2.631724 2.45627573 4.81527263 4.55352037 6 8 C5.71101782 9.34364362 5.38228783 10.67986936 5 12 C4.15885829 10.56705502 3.32734313 9.12845595 2.5 7.6875 C1.80390625 6.48673828 1.80390625 6.48673828 1.09375 5.26171875 C0 3 0 3 0 0 Z " fill="#628532" transform="translate(295,141)"/>
<path d="M0 0 C1 3 1 3 0.00390625 5.04296875 C-0.47175781 5.75066406 -0.94742188 6.45835937 -1.4375 7.1875 C-1.91058594 7.90292969 -2.38367188 8.61835938 -2.87109375 9.35546875 C-3.24363281 9.89816406 -3.61617187 10.44085938 -4 11 C-4.65234375 9.234375 -4.65234375 9.234375 -5 7 C-4.00390625 5.078125 -4.00390625 5.078125 -2.5625 3.25 C-2.08941406 2.63640625 -1.61632812 2.0228125 -1.12890625 1.390625 C-0.75636719 0.93171875 -0.38382813 0.4728125 0 0 Z " fill="#638733" transform="translate(197,139)"/>
<path d="M0 0 C0.33 0.99 0.66 1.98 1 3 C-2.3 2.34 -5.6 1.68 -9 1 C-9 0.67 -9 0.34 -9 0 C-3.375 -1.125 -3.375 -1.125 0 0 Z " fill="#709B2B" transform="translate(208,315)"/>
<path d="M0 0 C0.66 0 1.32 0 2 0 C0.68775452 3.93673644 -0.91910327 6.22719294 -4 9 C-4 8.01 -4 7.02 -4 6 C-3.34 6 -2.68 6 -2 6 C-2 5.01 -2 4.02 -2 3 C-1.34 3 -0.68 3 0 3 C0 2.01 0 1.02 0 0 Z " fill="#8BBC40" transform="translate(367,254)"/>
<path d="M0 0 C0.66 0 1.32 0 2 0 C2.99 2.64 3.98 5.28 5 8 C4.01 8 3.02 8 2 8 C0.74335022 5.09399739 0 3.20395416 0 0 Z " fill="#73A130" transform="translate(110,229)"/>
<path d="M0 0 C4.40114397 0.50298788 6.71195019 2.08772731 10 5 C5.2482602 4.56802365 3.07999946 3.67230705 0 0 Z " fill="#669127" transform="translate(209,226)"/>
<path d="M0 0 C0.99 0 1.98 0 3 0 C4.4606285 2.64738916 5 3.89448334 5 7 C4.34 7 3.68 7 3 7 C2.01 4.69 1.02 2.38 0 0 Z " fill="#8BC433" transform="translate(374,112)"/>
<path d="M0 0 C0.88492145 2.47778006 1.11637742 3.66056586 0.25 6.1875 C-1 8 -1 8 -4 9 C-2.94124926 5.59687262 -1.99097846 2.98646769 0 0 Z " fill="#97CA46" transform="translate(118,106)"/>
</svg>
