<svg xmlns="http://www.w3.org/2000/svg" viewBox="0 0 1200 900" style="background:linear-gradient(135deg, #f8f7f4 0%, #e8e5df 100%)">
  <defs>
    <!-- Gradients -->
    <linearGradient id="paperGrad" x1="0%" y1="0%" x2="100%" y2="100%">
      <stop offset="0%" style="stop-color:#ffffff;stop-opacity:1"/>
      <stop offset="100%" style="stop-color:#f8f7f4;stop-opacity:1"/>
    </linearGradient>
    <linearGradient id="pencilGrad" x1="0%" y1="0%" x2="100%" y2="100%">
      <stop offset="0%" style="stop-color:#6b6b6b;stop-opacity:0.8"/>
      <stop offset="100%" style="stop-color:#3a3a3a;stop-opacity:1"/>
    </linearGradient>
    <linearGradient id="inkGrad" x1="0%" y1="0%" x2="0%" y2="100%">
      <stop offset="0%" style="stop-color:#1a1a1a;stop-opacity:1"/>
      <stop offset="100%" style="stop-color:#000000;stop-opacity:1"/>
    </linearGradient>
    <linearGradient id="colorWash" x1="0%" y1="0%" x2="100%" y2="0%">
      <stop offset="0%" style="stop-color:#fef3c7;stop-opacity:0.6"/>
      <stop offset="50%" style="stop-color:#fed7aa;stop-opacity:0.5"/>
      <stop offset="100%" style="stop-color:#fecaca;stop-opacity:0.4"/>
    </linearGradient>
    
    <!-- Filters -->
    <filter id="pencilTexture">
      <feTurbulence type="fractalNoise" baseFrequency="0.9" numOctaves="4" result="noise"/>
      <feDisplacementMap in="SourceGraphic" in2="noise" scale="1.5" xChannelSelector="R" yChannelSelector="G"/>
    </filter>
    <filter id="paperTexture">
      <feTurbulence type="fractalNoise" baseFrequency="0.05" numOctaves="3" result="noise"/>
      <feColorMatrix in="noise" type="matrix" values="1 0 0 0 0  0 1 0 0 0  0 0 1 0 0  0 0 0 0.03 0"/>
      <feBlend in="SourceGraphic" in2="noise" mode="multiply"/>
    </filter>
    <filter id="inkBlur">
      <feGaussianBlur stdDeviation="0.3"/>
    </filter>
    <filter id="shadow">
      <feDropShadow dx="2" dy="3" stdDeviation="4" flood-opacity="0.2"/>
    </filter>
    
    <!-- Paper grain pattern -->
    <pattern id="paperGrain" patternUnits="userSpaceOnUse" width="100" height="100">
      <rect width="100" height="100" fill="#f8f7f4"/>
      <circle cx="10" cy="10" r="0.5" fill="#d4d1c9" opacity="0.3"/>
      <circle cx="45" cy="30" r="0.4" fill="#d4d1c9" opacity="0.3"/>
      <circle cx="80" cy="20" r="0.5" fill="#d4d1c9" opacity="0.3"/>
      <circle cx="30" cy="60" r="0.4" fill="#d4d1c9" opacity="0.3"/>
      <circle cx="70" cy="75" r="0.5" fill="#d4d1c9" opacity="0.3"/>
      <circle cx="20" cy="90" r="0.4" fill="#d4d1c9" opacity="0.3"/>
    </pattern>
  </defs>

  <!-- Background with paper texture -->
  <rect width="1200" height="900" fill="url(#paperGrain)"/>
  
  <!-- Title -->
  <text x="600" y="80" font-family="Georgia, serif" font-size="38" font-weight="bold" fill="#3a3a3a" text-anchor="middle">
    Architect Sketch Evolution
  </text>
  <text x="600" y="115" font-family="Arial, sans-serif" font-size="16" fill="#6b6b6b" text-anchor="middle">
    From Hand-Drawn Concept to Digital Integration (2025 Workflow)
  </text>

  <!-- Stage labels -->
  <g opacity="0">
    <animate attributeName="opacity" values="0;1" dur="1s" begin="0.5s" fill="freeze"/>
    <text x="250" y="180" font-family="Arial, sans-serif" font-size="13" font-weight="bold" fill="#8b7355" text-anchor="middle">STAGE 1</text>
    <text x="250" y="200" font-family="Arial, sans-serif" font-size="11" fill="#6b6b6b" text-anchor="middle">Rough Pencil</text>
    
    <text x="520" y="180" font-family="Arial, sans-serif" font-size="13" font-weight="bold" fill="#8b7355" text-anchor="middle">STAGE 2</text>
    <text x="520" y="200" font-family="Arial, sans-serif" font-size="11" fill="#6b6b6b" text-anchor="middle">Refined Ink</text>
    
    <text x="790" y="180" font-family="Arial, sans-serif" font-size="13" font-weight="bold" fill="#8b7355" text-anchor="middle">STAGE 3</text>
    <text x="790" y="200" font-family="Arial, sans-serif" font-size="11" fill="#6b6b6b" text-anchor="middle">Color Wash</text>
    
    <text x="1060" y="180" font-family="Arial, sans-serif" font-size="13" font-weight="bold" fill="#8b7355" text-anchor="middle">STAGE 4</text>
    <text x="1060" y="200" font-family="Arial, sans-serif" font-size="11" fill="#6b6b6b" text-anchor="middle">Digital Hybrid</text>
  </g>

  <!-- STAGE 1: Rough Pencil Sketch -->
  <g transform="translate(140, 240)" opacity="0">
    <animate attributeName="opacity" values="0;1" dur="1.2s" begin="0s" fill="freeze"/>
    
    <!-- Paper sheet -->
    <rect x="0" y="0" width="220" height="280" rx="4" fill="url(#paperGrad)" stroke="#d4d1c9" stroke-width="2" filter="url(#paperTexture)"/>
    
    <!-- Rough building sketch with pencil texture -->
    <g stroke="url(#pencilGrad)" stroke-width="2" fill="none" filter="url(#pencilTexture)" opacity="0.7">
      <!-- Building outline (rough, sketchy) -->
      <path d="M 40,100 L 40,220 L 180,220 L 180,100 Z" stroke-dasharray="3,2"/>
      <path d="M 40,100 L 110,60 L 180,100" stroke-dasharray="3,2"/>
      
      <!-- Windows (loose) -->
      <rect x="60" y="130" width="30" height="35" stroke-dasharray="2,1"/>
      <rect x="110" y="130" width="30" height="35" stroke-dasharray="2,1"/>
      <rect x="60" y="180" width="30" height="35" stroke-dasharray="2,1"/>
      <rect x="110" y="180" width="30" height="35" stroke-dasharray="2,1"/>
      
      <!-- Door -->
      <rect x="85" y="190" width="20" height="30" stroke-dasharray="2,1"/>
      
      <!-- Construction lines -->
      <line x1="20" y1="220" x2="200" y2="220" stroke="#b8b5ad" stroke-width="1" opacity="0.5"/>
      <line x1="110" y1="40" x2="110" y2="240" stroke="#b8b5ad" stroke-width="1" opacity="0.5"/>
    </g>
    
    <!-- Hand-drawn annotations -->
    <g font-family="'Segoe Script', cursive" font-size="9" fill="#6b6b6b">
      <text x="185" y="130" transform="rotate(-90 185 130)">12m</text>
      <text x="110" y="245">18m wide</text>
      <line x1="40" y1="235" x2="180" y2="235" stroke="#6b6b6b" stroke-width="0.5"/>
      <polygon points="40,235 45,233 45,237" fill="#6b6b6b"/>
      <polygon points="180,235 175,233 175,237" fill="#6b6b6b"/>
    </g>
    
    <text x="110" y="270" font-family="Arial" font-size="10" fill="#8b7355" text-anchor="middle">Initial Concept</text>
  </g>

  <!-- STAGE 2: Refined Ink Drawing -->
  <g transform="translate(410, 240)" opacity="0">
    <animate attributeName="opacity" values="0;1" dur="1.2s" begin="1.2s" fill="freeze"/>
    
    <!-- Paper sheet -->
    <rect x="0" y="0" width="220" height="280" rx="4" fill="#ffffff" stroke="#c4c1b9" stroke-width="2" filter="url(#shadow)"/>
    
    <!-- Clean ink lines -->
    <g stroke="url(#inkGrad)" stroke-width="2.5" fill="none" filter="url(#inkBlur)">
      <!-- Building outline (clean, precise) -->
      <path d="M 40,100 L 40,220 L 180,220 L 180,100 Z"/>
      <path d="M 40,100 L 110,60 L 180,100"/>
      <line x1="110" y1="60" x2="110" y2="100"/>
      
      <!-- Windows (detailed) -->
      <rect x="58" y="125" width="32" height="38" stroke-width="2"/>
      <line x1="74" y1="125" x2="74" y2="163" stroke-width="1.5"/>
      <line x1="58" y1="144" x2="90" y2="144" stroke-width="1.5"/>
      
      <rect x="108" y="125" width="32" height="38" stroke-width="2"/>
      <line x1="124" y1="125" x2="124" y2="163" stroke-width="1.5"/>
      <line x1="108" y1="144" x2="140" y2="144" stroke-width="1.5"/>
      
      <rect x="58" y="175" width="32" height="38" stroke-width="2"/>
      <line x1="74" y1="175" x2="74" y2="213" stroke-width="1.5"/>
      <line x1="58" y1="194" x2="90" y2="194" stroke-width="1.5"/>
      
      <rect x="108" y="175" width="32" height="38" stroke-width="2"/>
      <line x1="124" y1="175" x2="124" y2="213" stroke-width="1.5"/>
      <line x1="108" y1="194" x2="140" y2="194" stroke-width="1.5"/>
      
      <!-- Door with detail -->
      <rect x="84" y="188" width="24" height="32" stroke-width="2"/>
      <circle cx="102" cy="204" r="1.5" fill="#1a1a1a"/>
      <line x1="96" y1="188" x2="96" y2="220" stroke-width="1"/>
      
      <!-- Ground line -->
      <line x1="20" y1="220" x2="200" y2="220" stroke-width="3"/>
      
      <!-- Roof details -->
      <line x1="50" y1="95" x2="80" y2="95" stroke-width="1.5"/>
      <line x1="140" y1="95" x2="170" y2="95" stroke-width="1.5"/>
    </g>
    
    <!-- Precise dimensions -->
    <g font-family="Arial" font-size="9" fill="#1a1a1a">
      <text x="190" y="160">12.0m</text>
      <line x1="185" y1="100" x2="185" y2="220" stroke="#1a1a1a" stroke-width="1"/>
      <polygon points="185,100 183,105 187,105" fill="#1a1a1a"/>
      <polygon points="185,220 183,215 187,215" fill="#1a1a1a"/>
      
      <text x="110" y="245" text-anchor="middle">18.5m</text>
      <line x1="40" y1="235" x2="180" y2="235" stroke="#1a1a1a" stroke-width="1"/>
      <polygon points="40,235 45,233 45,237" fill="#1a1a1a"/>
      <polygon points="180,235 175,233 175,237" fill="#1a1a1a"/>
    </g>
    
    <text x="110" y="270" font-family="Arial" font-size="10" fill="#8b7355" text-anchor="middle">Detailed Linework</text>
  </g>

  <!-- STAGE 3: Color Wash & Annotations -->
  <g transform="translate(680, 240)" opacity="0">
    <animate attributeName="opacity" values="0;1" dur="1.2s" begin="2.4s" fill="freeze"/>
    
    <!-- Paper sheet -->
    <rect x="0" y="0" width="220" height="280" rx="4" fill="#ffffff" stroke="#c4c1b9" stroke-width="2" filter="url(#shadow)"/>
    
    <!-- Building with color wash -->
    <g>
      <!-- Colored walls -->
      <path d="M 40,100 L 40,220 L 180,220 L 180,100 Z" fill="url(#colorWash)" stroke="#1a1a1a" stroke-width="2"/>
      <path d="M 40,100 L 110,60 L 180,100" fill="#fed7aa" opacity="0.7" stroke="#1a1a1a" stroke-width="2"/>
      <line x1="110" y1="60" x2="110" y2="100" stroke="#1a1a1a" stroke-width="2"/>
      
      <!-- Windows with blue tint -->
      <rect x="58" y="125" width="32" height="38" fill="#bfdbfe" opacity="0.6" stroke="#1a1a1a" stroke-width="2"/>
      <line x1="74" y1="125" x2="74" y2="163" stroke="#1a1a1a" stroke-width="1.5"/>
      <line x1="58" y1="144" x2="90" y2="144" stroke="#1a1a1a" stroke-width="1.5"/>
      
      <rect x="108" y="125" width="32" height="38" fill="#bfdbfe" opacity="0.6" stroke="#1a1a1a" stroke-width="2"/>
      <line x1="124" y1="125" x2="124" y2="163" stroke="#1a1a1a" stroke-width="1.5"/>
      <line x1="108" y1="144" x2="140" y2="144" stroke="#1a1a1a" stroke-width="1.5"/>
      
      <rect x="58" y="175" width="32" height="38" fill="#bfdbfe" opacity="0.6" stroke="#1a1a1a" stroke-width="2"/>
      <line x1="74" y1="175" x2="74" y2="213" stroke="#1a1a1a" stroke-width="1.5"/>
      <line x1="58" y1="194" x2="90" y2="194" stroke="#1a1a1a" stroke-width="1.5"/>
      
      <rect x="108" y="175" width="32" height="38" fill="#bfdbfe" opacity="0.6" stroke="#1a1a1a" stroke-width="2"/>
      <line x1="124" y1="175" x2="124" y2="213" stroke="#1a1a1a" stroke-width="1.5"/>
      <line x1="108" y1="194" x2="140" y2="194" stroke="#1a1a1a" stroke-width="1.5"/>
      
      <!-- Door with wood texture -->
      <rect x="84" y="188" width="24" height="32" fill="#92400e" opacity="0.7" stroke="#1a1a1a" stroke-width="2"/>
      <circle cx="102" cy="204" r="1.5" fill="#fbbf24"/>
      <line x1="96" y1="188" x2="96" y2="220" stroke="#78350f" stroke-width="1"/>
      
      <!-- Ground -->
      <line x1="20" y1="220" x2="200" y2="220" stroke="#1a1a1a" stroke-width="3"/>
      
      <!-- Shadows -->
      <ellipse cx="110" cy="223" rx="70" ry="8" fill="#000000" opacity="0.15"/>
    </g>
    
    <!-- Material annotations -->
    <g font-family="Arial" font-size="8" fill="#1a1a1a">
      <text x="15" y="110">Concrete</text>
      <line x1="25" y1="112" x2="35" y2="120" stroke="#8b7355" stroke-width="1"/>
      
      <text x="150" y="140">Glass</text>
      <line x1="145" y1="142" x2="130" y2="145" stroke="#3b82f6" stroke-width="1"/>
      
      <text x="150" y="200">Wood</text>
      <line x1="145" y1="202" x2="110" y2="205" stroke="#92400e" stroke-width="1"/>
    </g>
    
    <text x="110" y="270" font-family="Arial" font-size="10" fill="#8b7355" text-anchor="middle">Rendered Colors</text>
  </g>

  <!-- STAGE 4: Digital Hybrid -->
  <g transform="translate(950, 240)" opacity="0">
    <animate attributeName="opacity" values="0;1" dur="1.2s" begin="3.6s" fill="freeze"/>
    
    <!-- Digital canvas with soft shadow -->
    <rect x="0" y="0" width="220" height="280" rx="6" fill="#ffffff" stroke="#94a3b8" stroke-width="3" filter="url(#shadow)"/>
    
    <!-- Refined building with digital enhancements -->
    <g>
      <!-- Wall with gradient -->
      <defs>
        <linearGradient id="wallGrad" x1="0%" y1="0%" x2="0%" y2="100%">
          <stop offset="0%" style="stop-color:#fef3c7;stop-opacity:1"/>
          <stop offset="100%" style="stop-color:#fde68a;stop-opacity:1"/>
        </linearGradient>
        <linearGradient id="roofGrad" x1="0%" y1="0%" x2="0%" y2="100%">
          <stop offset="0%" style="stop-color:#f87171;stop-opacity:0.9"/>
          <stop offset="100%" style="stop-color:#dc2626;stop-opacity:0.8"/>
        </linearGradient>
      </defs>
      
      <path d="M 40,100 L 40,220 L 180,220 L 180,100 Z" fill="url(#wallGrad)" stroke="#1a1a1a" stroke-width="2.5"/>
      <path d="M 40,100 L 110,60 L 180,100" fill="url(#roofGrad)" stroke="#1a1a1a" stroke-width="2.5"/>
      <line x1="110" y1="60" x2="110" y2="100" stroke="#1a1a1a" stroke-width="2"/>
      
      <!-- Reflective windows -->
      <defs>
        <linearGradient id="glassReflect" x1="0%" y1="0%" x2="0%" y2="100%">
          <stop offset="0%" style="stop-color:#dbeafe;stop-opacity:0.9"/>
          <stop offset="50%" style="stop-color:#60a5fa;stop-opacity:0.7"/>
          <stop offset="100%" style="stop-color:#3b82f6;stop-opacity:0.8"/>
        </linearGradient>
      </defs>
      
      <rect x="58" y="125" width="32" height="38" fill="url(#glassReflect)" stroke="#1a1a1a" stroke-width="2"/>
      <line x1="74" y1="125" x2="74" y2="163" stroke="#1a1a1a" stroke-width="1.5"/>
      <line x1="58" y1="144" x2="90" y2="144" stroke="#1a1a1a" stroke-width="1.5"/>
      <rect x="60" y="127" width="12" height="15" fill="#ffffff" opacity="0.4"/>
      
      <rect x="108" y="125" width="32" height="38" fill="url(#glassReflect)" stroke="#1a1a1a" stroke-width="2"/>
      <line x1="124" y1="125" x2="124" y2="163" stroke="#1a1a1a" stroke-width="1.5"/>
      <line x1="108" y1="144" x2="140" y2="144" stroke="#1a1a1a" stroke-width="1.5"/>
      <rect x="110" y="127" width="12" height="15" fill="#ffffff" opacity="0.4"/>
      
      <rect x="58" y="175" width="32" height="38" fill="url(#glassReflect)" stroke="#1a1a1a" stroke-width="2"/>
      <line x1="74" y1="175" x2="74" y2="213" stroke="#1a1a1a" stroke-width="1.5"/>
      <line x1="58" y1="194" x2="90" y2="194" stroke="#1a1a1a" stroke-width="1.5"/>
      
      <rect x="108" y="175" width="32" height="38" fill="url(#glassReflect)" stroke="#1a1a1a" stroke-width="2"/>
      <line x1="124" y1="175" x2="124" y2="213" stroke="#1a1a1a" stroke-width="1.5"/>
      <line x1="108" y1="194" x2="140" y2="194" stroke="#1a1a1a" stroke-width="1.5"/>
      
      <!-- Wooden door with texture -->
      <rect x="84" y="188" width="24" height="32" fill="#78350f" stroke="#1a1a1a" stroke-width="2"/>
      <circle cx="102" cy="204" r="2" fill="#fbbf24" stroke="#78350f" stroke-width="0.5"/>
      <line x1="96" y1="188" x2="96" y2="220" stroke="#451a03" stroke-width="1.5"/>
      
      <!-- Ground with texture -->
      <line x1="20" y1="220" x2="200" y2="220" stroke="#1a1a1a" stroke-width="3"/>
      <rect x="20" y="221" width="180" height="8" fill="#d6d3d1" opacity="0.5"/>
      
      <!-- Professional shadows -->
      <ellipse cx="110" cy="224" rx="80" ry="10" fill="#000000" opacity="0.25"/>
    </g>
    
    <!-- Digital annotations with modern style -->
    <g font-family="Arial" font-size="9" font-weight="bold" fill="#1e293b">
      <rect x="8" y="95" width="55" height="28" rx="3" fill="#f1f5f9" opacity="0.9" stroke="#94a3b8" stroke-width="1"/>
      <text x="35" y="107" text-anchor="middle" font-size="7">MATERIALS</text>
      <text x="35" y="117" text-anchor="middle" font-size="8">✓ Verified</text>
      
      <rect x="155" y="155" width="50" height="20" rx="3" fill="#f1f5f9" opacity="0.9" stroke="#94a3b8" stroke-width="1"/>
      <text x="180" y="168" text-anchor="middle" font-size="8">12.0m ↕</text>
      
      <rect x="75" y="245" width="60" height="20" rx="3" fill="#f1f5f9" opacity="0.9" stroke="#94a3b8" stroke-width="1"/>
      <text x="105" y="258" text-anchor="middle" font-size="8">18.5m ↔</text>
    </g>
    
    <text x="110" y="270" font-family="Arial" font-size="10" fill="#8b7355" text-anchor="middle">Digital Ready</text>
  </g>

  <!-- Workflow arrow -->
  <g opacity="0">
    <animate attributeName="opacity" values="0;1" dur="1s" begin="4.5s" fill="freeze"/>
    <path d="M 270,380 L 390,380" stroke="#8b7355" stroke-width="3" fill="none" marker-end="url(#arrowhead)"/>
    <path d="M 540,380 L 660,380" stroke="#8b7355" stroke-width="3" fill="none" marker-end="url(#arrowhead)"/>
    <path d="M 810,380 L 930,380" stroke="#8b7355" stroke-width="3" fill="none" marker-end="url(#arrowhead)"/>
    
    <defs>
      <marker id="arrowhead" markerWidth="10" markerHeight="10" refX="9" refY="3" orient="auto">
        <polygon points="0 0, 10 3, 0 6" fill="#8b7355"/>
      </marker>
    </defs>
  </g>

  <!-- Tools showcase -->
  <g transform="translate(100, 600)" opacity="0">
    <animate attributeName="opacity" values="0;1" dur="1s" begin="5s" fill="freeze"/>
    
    <text x="500" y="0" font-family="Arial" font-size="18" font-weight="bold" fill="#3a3a3a" text-anchor="middle">
      Modern Architectural Sketch Workflow
    </text>
    
    <!-- Tool icons -->
    <g transform="translate(150, 40)">
      <circle cx="0" cy="0" r="30" fill="#f3f4f6" stroke="#d1d5db" stroke-width="2"/>
      <text x="0" y="5" font-size="24" text-anchor="middle">✏️</text>
      <text x="0" y="50" font-family="Arial" font-size="11" fill="#6b6b6b" text-anchor="middle">Pencil</text>
    </g>
    
    <g transform="translate(350, 40)">
      <circle cx="0" cy="0" r="30" fill="#f3f4f6" stroke="#d1d5db" stroke-width="2"/>
      <text x="0" y="5" font-size="24" text-anchor="middle">🖊️</text>
      <text x="0" y="50" font-family="Arial" font-size="11" fill="#6b6b6b" text-anchor="middle">Fineliner</text>
    </g>
    
    <g transform="translate(550, 40)">
      <circle cx="0" cy="0" r="30" fill="#f3f4f6" stroke="#d1d5db" stroke-width="2"/>
      <text x="0" y="5" font-size="24" text-anchor="middle">🎨</text>
      <text x="0" y="50" font-family="Arial" font-size="11" fill="#6b6b6b" text-anchor="middle">Markers</text>
    </g>
    
    <g transform="translate(750, 40)">
      <circle cx="0" cy="0" r="30" fill="#f3f4f6" stroke="#d1d5db" stroke-width="2"/>
      <text x="0" y="5" font-size="24" text-anchor="middle">💻</text>
      <text x="0" y="50" font-family="Arial" font-size="11" fill="#6b6b6b" text-anchor="middle">Digital</text>
    </g>
  </g>

  <!-- Bottom info -->
  <g transform="translate(100, 820)">
    <text x="500" y="0" font-family="Arial" font-size="14" fill="#6b6b6b" text-anchor="middle">
      Traditional Hand Sketching + Digital Enhancement = Perfect Architectural Presentation
    </text>
  </g>
</svg>
