<svg xmlns="http://www.w3.org/2000/svg" viewBox="0 0 1200 900" style="background:linear-gradient(180deg, #f8fafc 0%, #e2e8f0 100%)">
  <defs>
    <!-- Photorealistic PBR Material Gradients -->
    <linearGradient id="woodFloor" x1="0%" y1="0%" x2="100%" y2="100%">
      <stop offset="0%" style="stop-color:#d4a574;stop-opacity:1"/>
      <stop offset="50%" style="stop-color:#b8936c;stop-opacity:1"/>
      <stop offset="100%" style="stop-color:#a0825f;stop-opacity:1"/>
    </linearGradient>
    
    <linearGradient id="wallWhite" x1="0%" y1="0%" x2="0%" y2="100%">
      <stop offset="0%" style="stop-color:#ffffff;stop-opacity:1"/>
      <stop offset="100%" style="stop-color:#f1f5f9;stop-opacity:1"/>
    </linearGradient>
    
    <linearGradient id="wallGray" x1="0%" y1="0%" x2="0%" y2="100%">
      <stop offset="0%" style="stop-color:#f8fafc;stop-opacity:1"/>
      <stop offset="100%" style="stop-color:#e2e8f0;stop-opacity:1"/>
    </linearGradient>
    
    <linearGradient id="sofaBeige" x1="0%" y1="0%" x2="100%" y2="100%">
      <stop offset="0%" style="stop-color:#d4c5b0;stop-opacity:1"/>
      <stop offset="50%" style="stop-color:#c9b89e;stop-opacity:1"/>
      <stop offset="100%" style="stop-color:#b5a68f;stop-opacity:1"/>
    </linearGradient>
    
    <linearGradient id="walnutWood" x1="0%" y1="0%" x2="100%" y2="100%">
      <stop offset="0%" style="stop-color:#5d4e37;stop-opacity:1"/>
      <stop offset="50%" style="stop-color:#6f5a40;stop-opacity:1"/>
      <stop offset="100%" style="stop-color:#4a3c28;stop-opacity:1"/>
    </linearGradient>
    
    <linearGradient id="charcoalFabric" x1="0%" y1="0%" x2="100%" y2="100%">
      <stop offset="0%" style="stop-color:#4a5568;stop-opacity:1"/>
      <stop offset="50%" style="stop-color:#3d4656;stop-opacity:1"/>
      <stop offset="100%" style="stop-color:#2d3748;stop-opacity:1"/>
    </linearGradient>
    
    <linearGradient id="ceramicTile" x1="0%" y1="0%" x2="100%" y2="100%">
      <stop offset="0%" style="stop-color:#f1f5f9;stop-opacity:1"/>
      <stop offset="50%" style="stop-color:#e2e8f0;stop-opacity:1"/>
      <stop offset="100%" style="stop-color:#cbd5e1;stop-opacity:1"/>
    </linearGradient>
    
    <radialGradient id="warmLight" cx="50%" cy="30%">
      <stop offset="0%" style="stop-color:#fff8e7;stop-opacity:0.9"/>
      <stop offset="100%" style="stop-color:#fff8e7;stop-opacity:0"/>
    </radialGradient>
    
    <radialGradient id="spotLight" cx="50%" cy="50%">
      <stop offset="0%" style="stop-color:#fef3c7;stop-opacity:0.7"/>
      <stop offset="100%" style="stop-color:#fef3c7;stop-opacity:0"/>
    </radialGradient>
    
    <!-- Realistic Shadows and Reflections -->
    <filter id="softShadow">
      <feGaussianBlur in="SourceAlpha" stdDeviation="3"/>
      <feOffset dx="2" dy="5" result="offsetblur"/>
      <feComponentTransfer>
        <feFuncA type="linear" slope="0.4"/>
      </feComponentTransfer>
      <feMerge>
        <feMergeNode/>
        <feMergeNode in="SourceGraphic"/>
      </feMerge>
    </filter>
    
    <filter id="hardShadow">
      <feGaussianBlur in="SourceAlpha" stdDeviation="1.5"/>
      <feOffset dx="1" dy="3" result="offsetblur"/>
      <feComponentTransfer>
        <feFuncA type="linear" slope="0.5"/>
      </feComponentTransfer>
      <feMerge>
        <feMergeNode/>
        <feMergeNode in="SourceGraphic"/>
      </feMerge>
    </filter>
    
    <filter id="reflection">
      <feGaussianBlur stdDeviation="1"/>
      <feComponentTransfer>
        <feFuncA type="linear" slope="0.3"/>
      </feComponentTransfer>
    </filter>
    
    <filter id="metallic">
      <feSpecularLighting surfaceScale="5" specularConstant="0.8" specularExponent="20" lighting-color="white">
        <fePointLight x="300" y="200" z="150"/>
      </feSpecularLighting>
      <feComposite in="SourceGraphic" operator="arithmetic" k1="0" k2="1" k3="1" k4="0"/>
    </filter>
    
    <!-- Wood Floor Pattern -->
    <pattern id="woodPlanks" x="0" y="0" width="120" height="20" patternUnits="userSpaceOnUse">
      <rect width="120" height="20" fill="url(#woodFloor)"/>
      <line x1="0" y1="0" x2="120" y2="0" stroke="#9a7b5a" stroke-width="0.5" opacity="0.4"/>
      <line x1="60" y1="0" x2="60" y2="20" stroke="#9a7b5a" stroke-width="0.5" opacity="0.3"/>
    </pattern>
  </defs>

  <!-- Global Warm Lighting Overlay -->
  <rect width="1200" height="900" fill="url(#warmLight)" opacity="0.15"/>

  <!-- ISOMETRIC APARTMENT FLOOR PLAN (35° angle) -->
  <g transform="translate(600, 350)">
    
    <!-- ========== FLOOR (Wood Planks) ========== -->
    <!-- Living Area Floor -->
    <path d="M -280,120 L -80,220 L -80,380 L -280,280 Z" 
          fill="url(#woodPlanks)" 
          stroke="#8b6f47" 
          stroke-width="1"
          filter="url(#softShadow)"
          opacity="0">
      <animate attributeName="opacity" values="0;1" dur="0.6s" fill="freeze"/>
    </path>
    
    <!-- Kitchen Floor (Ceramic) -->
    <path d="M -80,220 L 120,120 L 120,240 L -80,340 Z" 
          fill="url(#ceramicTile)" 
          stroke="#cbd5e1" 
          stroke-width="1"
          opacity="0">
      <animate attributeName="opacity" values="0;1" dur="0.6s" begin="0.1s" fill="freeze"/>
    </path>
    
    <!-- Bedroom Floor -->
    <path d="M 120,120 L 320,20 L 320,180 L 120,280 Z" 
          fill="url(#woodPlanks)" 
          stroke="#8b6f47" 
          stroke-width="1"
          opacity="0">
      <animate attributeName="opacity" values="0;1" dur="0.6s" begin="0.2s" fill="freeze"/>
    </path>
    
    <!-- Bathroom Floor (Ceramic) -->
    <path d="M -280,120 L -80,20 L 120,120 L -80,220 Z" 
          fill="url(#ceramicTile)" 
          stroke="#cbd5e1" 
          stroke-width="1"
          opacity="0">
      <animate attributeName="opacity" values="0;1" dur="0.6s" begin="0.3s" fill="freeze"/>
    </path>

    <!-- ========== WALLS (Clean White/Light Gray) ========== -->
    <!-- Back Wall (Living Area) -->
    <path d="M -280,120 L -80,20 L -80,-140 L -280,-40 Z" 
          fill="url(#wallWhite)" 
          stroke="#cbd5e1" 
          stroke-width="1.5"
          filter="url(#softShadow)"
          opacity="0">
      <animate attributeName="opacity" values="0;1" dur="0.5s" begin="0.4s" fill="freeze"/>
    </path>
    
    <!-- Back Wall (Kitchen) -->
    <path d="M -80,20 L 120,120 L 120,-40 L -80,-140 Z" 
          fill="url(#wallGray)" 
          stroke="#cbd5e1" 
          stroke-width="1.5"
          opacity="0">
      <animate attributeName="opacity" values="0;1" dur="0.5s" begin="0.5s" fill="freeze"/>
    </path>
    
    <!-- Back Wall (Bedroom) -->
    <path d="M 120,120 L 320,20 L 320,-140 L 120,-40 Z" 
          fill="url(#wallWhite)" 
          stroke="#cbd5e1" 
          stroke-width="1.5"
          opacity="0">
      <animate attributeName="opacity" values="0;1" dur="0.5s" begin="0.6s" fill="freeze"/>
    </path>
    
    <!-- Side Wall (Left) -->
    <path d="M -280,-40 L -280,280 L -280,280 L -280,-40 Z" 
          fill="url(#wallGray)" 
          stroke="#cbd5e1" 
          stroke-width="1.5"
          opacity="0">
      <animate attributeName="opacity" values="0;1" dur="0.5s" begin="0.7s" fill="freeze"/>
    </path>

    <!-- ========== WINDOWS (with Natural Daylight) ========== -->
    <!-- Living Room Window -->
    <g opacity="0">
      <animate attributeName="opacity" values="0;1" dur="0.4s" begin="1s" fill="freeze"/>
      <rect x="-240" y="-100" width="100" height="80" fill="#e0f2fe" opacity="0.7" stroke="#94a3b8" stroke-width="2"/>
      <line x1="-190" y1="-100" x2="-190" y2="-20" stroke="#94a3b8" stroke-width="1.5"/>
      <line x1="-240" y1="-60" x2="-140" y2="-60" stroke="#94a3b8" stroke-width="1.5"/>
      <!-- Window light glow -->
      <rect x="-240" y="-100" width="100" height="80" fill="url(#spotLight)" opacity="0.4"/>
    </g>
    
    <!-- Bedroom Window -->
    <g opacity="0">
      <animate attributeName="opacity" values="0;1" dur="0.4s" begin="1.1s" fill="freeze"/>
      <path d="M 160,-100 L 280,-60 L 280,20 L 160,0 Z" fill="#e0f2fe" opacity="0.7" stroke="#94a3b8" stroke-width="2"/>
      <line x1="220" y1="-80" x2="220" y2="10" stroke="#94a3b8" stroke-width="1.5"/>
      <ellipse cx="220" cy="-40" rx="50" ry="35" fill="url(#spotLight)" opacity="0.3"/>
    </g>

    <!-- ========== DOORS ========== -->
    <!-- Kitchen Door -->
    <g opacity="0">
      <animate attributeName="opacity" values="0;1" dur="0.3s" begin="1.2s" fill="freeze"/>
      <path d="M 10,120 L 30,110 L 30,40 L 10,50 Z" fill="url(#walnutWood)" stroke="#4a3c28" stroke-width="1.5" filter="url(#hardShadow)"/>
      <circle cx="15" cy="75" r="2" fill="#cbd5e1" filter="url(#metallic)"/>
    </g>
    
    <!-- Bathroom Door -->
    <g opacity="0">
      <animate attributeName="opacity" values="0;1" dur="0.3s" begin="1.3s" fill="freeze"/>
      <path d="M -170,70 L -150,60 L -150,-10 L -170,0 Z" fill="url(#walnutWood)" stroke="#4a3c28" stroke-width="1.5" filter="url(#hardShadow)"/>
      <circle cx="-165" cy="25" r="2" fill="#cbd5e1" filter="url(#metallic)"/>
    </g>

    <!-- ========== LIVING AREA FURNITURE ========== -->
    <!-- L-Shaped Sofa (Beige Fabric) -->
    <g opacity="0" filter="url(#softShadow)">
      <animate attributeName="opacity" values="0;1" dur="0.5s" begin="1.5s" fill="freeze"/>
      <!-- Main sofa base -->
      <path d="M -220,200 L -130,245 L -130,275 L -220,230 Z" fill="url(#sofaBeige)" stroke="#a89073" stroke-width="1.5"/>
      <path d="M -130,245 L -40,200 L -40,230 L -130,275 Z" fill="#c9b89e" stroke="#a89073" stroke-width="1.5"/>
      <!-- Sofa back -->
      <path d="M -220,200 L -130,245 L -130,225 L -220,180 Z" fill="#d4c5b0" stroke="#a89073" stroke-width="1"/>
      <path d="M -130,245 L -40,200 L -40,180 L -130,225 Z" fill="#c9b89e" stroke="#a89073" stroke-width="1"/>
      <!-- Cushions -->
      <ellipse cx="-175" cy="230" rx="15" ry="8" fill="#b5a68f" opacity="0.8"/>
      <ellipse cx="-85" cy="213" rx="15" ry="8" fill="#b5a68f" opacity="0.8"/>
    </g>
    
    <!-- Coffee Table (Walnut Wood) -->
    <g opacity="0" filter="url(#softShadow)">
      <animate attributeName="opacity" values="0;1" dur="0.5s" begin="1.7s" fill="freeze"/>
      <path d="M -150,260 L -60,220 L -60,230 L -150,270 Z" fill="url(#walnutWood)" stroke="#4a3c28" stroke-width="1.5"/>
      <path d="M -150,260 L -150,270 L -60,230 L -60,220 Z" fill="#5d4e37" stroke="#4a3c28" stroke-width="1"/>
      <!-- Table legs -->
      <rect x="-145" y="265" width="4" height="15" fill="#3d2f20"/>
      <rect x="-110" y="248" width="4" height="15" fill="#3d2f20"/>
      <rect x="-75" y="230" width="4" height="15" fill="#3d2f20"/>
      <!-- Coffee cup decoration -->
      <circle cx="-105" cy="238" r="4" fill="#f3f4f6" stroke="#9ca3af" stroke-width="0.5"/>
    </g>
    
    <!-- TV Stand (Charcoal) -->
    <g opacity="0" filter="url(#hardShadow)">
      <animate attributeName="opacity" values="0;1" dur="0.5s" begin="1.9s" fill="freeze"/>
      <path d="M -250,150 L -200,125 L -200,145 L -250,170 Z" fill="url(#charcoalFabric)" stroke="#2d3748" stroke-width="1.5"/>
      <path d="M -250,150 L -250,170 L -200,145 L -200,125 Z" fill="#3d4656" stroke="#2d3748" stroke-width="1"/>
      <!-- TV Screen -->
      <rect x="-245" y="130" width="40" height="25" rx="2" fill="#1a202c" stroke="#4a5568" stroke-width="1"/>
      <rect x="-242" y="133" width="34" height="19" fill="#0f172a" opacity="0.6"/>
    </g>
    
    <!-- Floor Lamp -->
    <g opacity="0">
      <animate attributeName="opacity" values="0;1" dur="0.4s" begin="2.1s" fill="freeze"/>
      <line x1="-200" y1="250" x2="-200" y2="190" stroke="#64748b" stroke-width="2"/>
      <ellipse cx="-200" cy="185" rx="8" ry="4" fill="#fef3c7" opacity="0.8" filter="url(#reflection)"/>
      <circle cx="-200" cy="185" r="15" fill="url(#spotLight)" opacity="0.5"/>
    </g>

    <!-- ========== KITCHEN FURNITURE ========== -->
    <!-- Dining Table (Wood) -->
    <g opacity="0" filter="url(#softShadow)">
      <animate attributeName="opacity" values="0;1" dur="0.5s" begin="2.3s" fill="freeze"/>
      <path d="M 20,200 L 80,170 L 80,180 L 20,210 Z" fill="url(#walnutWood)" stroke="#4a3c28" stroke-width="1.5"/>
      <rect x="25" y="205" width="3" height="20" fill="#3d2f20"/>
      <rect x="52" y="192" width="3" height="20" fill="#3d2f20"/>
      <rect x="75" y="178" width="3" height="20" fill="#3d2f20"/>
    </g>
    
    <!-- Dining Chairs (Charcoal) -->
    <g opacity="0" filter="url(#hardShadow)">
      <animate attributeName="opacity" values="0;1" dur="0.4s" begin="2.5s" fill="freeze"/>
      <path d="M 10,215 L 25,208 L 25,220 L 10,227 Z" fill="url(#charcoalFabric)" stroke="#2d3748" stroke-width="1"/>
      <path d="M 25,208 L 25,195 L 10,202 L 10,215 Z" fill="#4a5568" stroke="#2d3748" stroke-width="1"/>
      <path d="M 70,188 L 85,181 L 85,193 L 70,200 Z" fill="url(#charcoalFabric)" stroke="#2d3748" stroke-width="1"/>
      <path d="M 85,181 L 85,168 L 70,175 L 70,188 Z" fill="#4a5568" stroke="#2d3748" stroke-width="1"/>
    </g>
    
    <!-- Kitchen Counter -->
    <g opacity="0">
      <animate attributeName="opacity" values="0;1" dur="0.5s" begin="2.7s" fill="freeze"/>
      <path d="M -50,240 L 40,195 L 40,210 L -50,255 Z" fill="#f1f5f9" stroke="#cbd5e1" stroke-width="1.5"/>
      <path d="M -50,240 L -50,255 L 40,210 L 40,195 Z" fill="#e2e8f0" stroke="#cbd5e1" stroke-width="1"/>
    </g>

    <!-- ========== BEDROOM FURNITURE ========== -->
    <!-- Bed (Beige with pillows) -->
    <g opacity="0" filter="url(#softShadow)">
      <animate attributeName="opacity" values="0;1" dur="0.6s" begin="2.9s" fill="freeze"/>
      <!-- Mattress -->
      <path d="M 160,140 L 270,85 L 270,125 L 160,180 Z" fill="url(#sofaBeige)" stroke="#a89073" stroke-width="1.5"/>
      <path d="M 160,140 L 160,180 L 270,125 L 270,85 Z" fill="#c9b89e" stroke="#a89073" stroke-width="1"/>
      <!-- Headboard -->
      <path d="M 160,140 L 270,85 L 270,60 L 160,115 Z" fill="#4a5568" stroke="#2d3748" stroke-width="1.5"/>
      <!-- Pillows -->
      <ellipse cx="215" cy="110" rx="25" ry="12" fill="#f3f4f6" opacity="0.9"/>
      <ellipse cx="190" cy="125" rx="20" ry="10" fill="#f3f4f6" opacity="0.9"/>
    </g>
    
    <!-- Nightstand -->
    <g opacity="0" filter="url(#hardShadow)">
      <animate attributeName="opacity" values="0;1" dur="0.4s" begin="3.1s" fill="freeze"/>
      <path d="M 280,130 L 310,115 L 310,135 L 280,150 Z" fill="url(#walnutWood)" stroke="#4a3c28" stroke-width="1"/>
      <rect x="285" y="145" width="3" height="15" fill="#3d2f20"/>
      <!-- Lamp on nightstand -->
      <ellipse cx="295" cy="125" rx="6" ry="3" fill="#fef3c7" opacity="0.7"/>
      <circle cx="295" cy="125" r="10" fill="url(#spotLight)" opacity="0.4"/>
    </g>
    
    <!-- Wardrobe -->
    <g opacity="0" filter="url(#softShadow)">
      <animate attributeName="opacity" values="0;1" dur="0.5s" begin="3.3s" fill="freeze"/>
      <path d="M 240,40 L 300,10 L 300,100 L 240,130 Z" fill="url(#walnutWood)" stroke="#4a3c28" stroke-width="1.5"/>
      <path d="M 240,40 L 240,130 L 300,100 L 300,10 Z" fill="#5d4e37" stroke="#4a3c28" stroke-width="1"/>
      <line x1="270" y1="25" x2="270" y2="115" stroke="#3d2f20" stroke-width="1"/>
      <circle cx="265" cy="70" r="2" fill="#cbd5e1" filter="url(#metallic)"/>
    </g>

    <!-- ========== BATHROOM FIXTURES ========== -->
    <!-- Sink -->
    <g opacity="0" filter="url(#hardShadow)">
      <animate attributeName="opacity" values="0;1" dur="0.4s" begin="3.5s" fill="freeze"/>
      <ellipse cx="-180" cy="100" rx="20" ry="10" fill="#ffffff" stroke="#cbd5e1" stroke-width="1.5"/>
      <rect x="-185" y="105" width="3" height="15" fill="#94a3b8"/>
      <!-- Faucet (metallic) -->
      <path d="M -180,95 Q -180,85 -175,85" stroke="#cbd5e1" stroke-width="2" fill="none" filter="url(#metallic)"/>
      <circle cx="-175" cy="85" r="2" fill="#e2e8f0" filter="url(#metallic)"/>
    </g>
    
    <!-- Toilet -->
    <g opacity="0" filter="url(#softShadow)">
      <animate attributeName="opacity" values="0;1" dur="0.4s" begin="3.7s" fill="freeze"/>
      <ellipse cx="-120" cy="130" rx="15" ry="20" fill="#ffffff" stroke="#cbd5e1" stroke-width="1.5"/>
      <ellipse cx="-120" cy="110" rx="12" ry="8" fill="#f8fafc" stroke="#cbd5e1" stroke-width="1"/>
    </g>

    <!-- ========== DECORATIVE ELEMENTS ========== -->
    <!-- Living Room Plant (Large) -->
    <g opacity="0">
      <animate attributeName="opacity" values="0;1" dur="0.5s" begin="3.9s" fill="freeze"/>
      <ellipse cx="-260" cy="260" rx="12" ry="6" fill="#78716c" stroke="#57534e" stroke-width="1"/>
      <path d="M -270,260 L -270,270 Q -265,274 -260,270 Q -255,274 -250,270 L -250,260 Z" fill="#a8a29e" stroke="#57534e" stroke-width="1"/>
      <ellipse cx="-265" cy="245" rx="10" ry="15" fill="#10b981" opacity="0.9"/>
      <ellipse cx="-255" cy="245" rx="10" ry="15" fill="#34d399" opacity="0.9"/>
      <ellipse cx="-260" cy="240" rx="8" ry="12" fill="#6ee7b7" opacity="0.8"/>
    </g>
    
    <!-- Bedroom Plant (Small) -->
    <g opacity="0">
      <animate attributeName="opacity" values="0;1" dur="0.4s" begin="4.1s" fill="freeze"/>
      <ellipse cx="150" cy="200" rx="8" ry="4" fill="#78716c" stroke="#57534e" stroke-width="0.8"/>
      <ellipse cx="150" cy="190" rx="6" ry="10" fill="#10b981" opacity="0.9"/>
      <ellipse cx="150" cy="188" rx="5" ry="8" fill="#34d399" opacity="0.8"/>
    </g>
    
    <!-- Bookshelf (Living Room) -->
    <g opacity="0" filter="url(#hardShadow)">
      <animate attributeName="opacity" values="0;1" dur="0.5s" begin="4.3s" fill="freeze"/>
      <path d="M -40,180 L 0,160 L 0,240 L -40,260 Z" fill="url(#walnutWood)" stroke="#4a3c28" stroke-width="1.5"/>
      <line x1="-40" y1="200" x2="0" y2="180" stroke="#3d2f20" stroke-width="1"/>
      <line x1="-40" y1="220" x2="0" y2="200" stroke="#3d2f20" stroke-width="1"/>
      <line x1="-40" y1="240" x2="0" y2="220" stroke="#3d2f20" stroke-width="1"/>
      <!-- Books -->
      <rect x="-35" y="185" width="30" height="8" fill="#ef4444" opacity="0.8"/>
      <rect x="-32" y="205" width="25" height="8" fill="#3b82f6" opacity="0.8"/>
      <rect x="-37" y="225" width="32" height="8" fill="#10b981" opacity="0.8"/>
    </g>

    <!-- ========== LIGHTING FIXTURES ========== -->
    <!-- Ceiling Spotlights -->
    <g opacity="0">
      <animate attributeName="opacity" values="0;1;0.8;1" dur="3s" begin="4.5s" repeatCount="indefinite"/>
      <!-- Living room spotlight -->
      <circle cx="-150" cy="180" r="25" fill="url(#spotLight)" opacity="0.4"/>
      <circle cx="-150" cy="180" r="4" fill="#fef3c7"/>
      <!-- Kitchen spotlight -->
      <circle cx="50" cy="160" r="20" fill="url(#spotLight)" opacity="0.3"/>
      <circle cx="50" cy="160" r="4" fill="#fef3c7"/>
      <!-- Bedroom spotlight -->
      <circle cx="220" cy="100" r="20" fill="url(#spotLight)" opacity="0.3"/>
      <circle cx="220" cy="100" r="4" fill="#fef3c7"/>
    </g>

    <!-- ========== FLOOR SHADOWS AND REFLECTIONS ========== -->
    <g opacity="0">
      <animate attributeName="opacity" values="0;0.2" dur="0.8s" begin="5s" fill="freeze"/>
      <!-- Sofa shadow -->
      <ellipse cx="-130" cy="275" rx="80" ry="15" fill="#000000" opacity="0.15" filter="url(#reflection)"/>
      <!-- Table shadow -->
      <ellipse cx="-105" cy="268" rx="45" ry="10" fill="#000000" opacity="0.12" filter="url(#reflection)"/>
      <!-- Bed shadow -->
      <ellipse cx="215" cy="180" rx="55" ry="20" fill="#000000" opacity="0.15" filter="url(#reflection)"/>
      <!-- Dining table shadow -->
      <ellipse cx="50" cy="210" rx="30" ry="8" fill="#000000" opacity="0.1" filter="url(#reflection)"/>
    </g>

  </g>

  <!-- Subtle ambient particles for depth -->
  <circle cx="300" cy="250" r="1.5" fill="#cbd5e1" opacity="0.3">
    <animate attributeName="cy" values="250;230;250" dur="6s" repeatCount="indefinite"/>
  </circle>
  <circle cx="800" cy="400" r="1.5" fill="#cbd5e1" opacity="0.25">
    <animate attributeName="cy" values="400;380;400" dur="7s" repeatCount="indefinite"/>
  </circle>
  <circle cx="500" cy="150" r="1.5" fill="#cbd5e1" opacity="0.2">
    <animate attributeName="cy" values="150;130;150" dur="8s" repeatCount="indefinite"/>
  </circle>
</svg>
