<svg xmlns="http://www.w3.org/2000/svg" viewBox="0 0 1200 600" role="img">
  <title>Photorealistic Interior Room Close-up</title>
  
  <defs>
    <!-- Cinematic Dark Background -->
    <linearGradient id="bgGrad" x1="0%" y1="0%" x2="100%" y2="100%">
      <stop offset="0%" style="stop-color:#0a0f1e"/>
      <stop offset="50%" style="stop-color:#1a1f35"/>
      <stop offset="100%" style="stop-color:#0d1228"/>
    </linearGradient>
    
    <!-- Realistic Window Light (Golden Hour) -->
    <radialGradient id="windowLight" cx="20%" cy="30%">
      <stop offset="0%" style="stop-color:#fffbf0;stop-opacity:1"/>
      <stop offset="25%" style="stop-color:#ffe8b3;stop-opacity:0.8"/>
      <stop offset="55%" style="stop-color:#ffd580;stop-opacity:0.4"/>
      <stop offset="100%" style="stop-color:#ffb347;stop-opacity:0"/>
    </radialGradient>
    
    <!-- Soft Ambient Lighting -->
    <radialGradient id="ambientGlow" cx="50%" cy="50%">
      <stop offset="0%" style="stop-color:#fff;stop-opacity:0.6"/>
      <stop offset="50%" style="stop-color:#fef3c7;stop-opacity:0.3"/>
      <stop offset="100%" style="stop-color:#fde68a;stop-opacity:0"/>
    </radialGradient>
    
    <!-- Leather Texture -->
    <pattern id="leatherTexture" x="0" y="0" width="8" height="8" patternUnits="userSpaceOnUse">
      <rect width="8" height="8" fill="#2c3e50"/>
      <circle cx="2" cy="2" r="0.3" fill="#34495e" opacity="0.6"/>
      <circle cx="6" cy="6" r="0.3" fill="#34495e" opacity="0.6"/>
      <circle cx="4" cy="4" r="0.2" fill="#2c3e50" opacity="0.8"/>
    </pattern>
    
    <!-- Wood Grain Pattern -->
    <pattern id="woodGrain" x="0" y="0" width="60" height="20" patternUnits="userSpaceOnUse">
      <rect width="60" height="20" fill="#8b6f47"/>
      <path d="M0,5 Q15,3 30,5 T60,5" stroke="#6b5636" stroke-width="0.3" fill="none" opacity="0.4"/>
      <path d="M0,10 Q15,12 30,10 T60,10" stroke="#6b5636" stroke-width="0.3" fill="none" opacity="0.3"/>
      <path d="M0,15 Q15,14 30,15 T60,15" stroke="#6b5636" stroke-width="0.3" fill="none" opacity="0.5"/>
    </pattern>
    
    <!-- Fabric Weave -->
    <pattern id="fabricWeave" x="0" y="0" width="4" height="4" patternUnits="userSpaceOnUse">
      <rect width="4" height="4" fill="#1e40af"/>
      <line x1="0" y1="2" x2="4" y2="2" stroke="#2563eb" stroke-width="0.5" opacity="0.3"/>
      <line x1="2" y1="0" x2="2" y2="4" stroke="#1e3a8a" stroke-width="0.5" opacity="0.3"/>
    </pattern>
    
    <!-- Advanced Shadow Filter -->
    <filter id="deepShadow">
      <feGaussianBlur in="SourceAlpha" stdDeviation="4"/>
      <feOffset dx="3" dy="5" result="offsetblur"/>
      <feComponentTransfer>
        <feFuncA type="linear" slope="0.5"/>
      </feComponentTransfer>
      <feMerge>
        <feMergeNode/>
        <feMergeNode in="SourceGraphic"/>
      </feMerge>
    </filter>
    
    <!-- Soft Glow Filter -->
    <filter id="softGlow">
      <feGaussianBlur stdDeviation="5" result="coloredBlur"/>
      <feMerge>
        <feMergeNode in="coloredBlur"/>
        <feMergeNode in="coloredBlur"/>
        <feMergeNode in="SourceGraphic"/>
      </feMerge>
    </filter>
    
    <!-- Glass Reflection -->
    <linearGradient id="glassReflection" x1="0%" y1="0%" x2="0%" y2="100%">
      <stop offset="0%" style="stop-color:#ffffff;stop-opacity:0.6"/>
      <stop offset="50%" style="stop-color:#e0f2fe;stop-opacity:0.3"/>
      <stop offset="100%" style="stop-color:#bae6fd;stop-opacity:0.1"/>
    </linearGradient>
  </defs>
  
  <!-- Background with Depth -->
  <rect width="1200" height="600" fill="url(#bgGrad)"/>
  
  <!-- Ambient Background Vignette -->
  <ellipse cx="300" cy="200" rx="400" ry="300" fill="#1e3a8a" opacity="0.06"/>
  <ellipse cx="900" cy="350" rx="350" ry="280" fill="#6d28d9" opacity="0.05"/>
  
  <!-- Main Scene (Close-up Perspective) -->
  <g transform="translate(600, 320)">
    
    <!-- Realistic Hardwood Floor (Close-up Detail) -->
    <g>
      <!-- Main Floor Surface -->
      <path d="M -500,180 L -400,140 L 400,140 L 500,180 Z" fill="url(#woodGrain)" opacity="0.95" filter="url(#deepShadow)"/>
      
      <!-- Wood Plank Separations (Realistic) -->
      <g opacity="0.35" stroke="#4a3520" stroke-width="1.2">
        <line x1="-480" y1="183" x2="480" y2="143"/>
        <line x1="-460" y1="186" x2="460" y2="148"/>
        <line x1="-440" y1="189" x2="440" y2="152"/>
        <line x1="-420" y1="192" x2="420" y2="156"/>
        
        <!-- Vertical plank breaks -->
        <line x1="-200" y1="145" x2="-240" y2="175"/>
        <line x1="0" y1="140" x2="0" y2="170"/>
        <line x1="200" y1="145" x2="160" y2="175"/>
      </g>
      
      <!-- Wood Grain Details -->
      <g opacity="0.2">
        <path d="M -450,145 Q -300,147 -150,145 T 150,145" stroke="#5c4a30" stroke-width="0.8" fill="none"/>
        <path d="M -400,150 Q -250,148 -100,150 T 200,150" stroke="#5c4a30" stroke-width="0.8" fill="none"/>
        <path d="M -350,155 Q -200,157 -50,155 T 250,155" stroke="#5c4a30" stroke-width="0.8" fill="none"/>
      </g>
      
      <!-- Floor Shadows from Furniture -->
      <ellipse cx="-150" cy="165" rx="80" ry="20" fill="#000" opacity="0.15"/>
      <ellipse cx="50" cy="170" rx="100" ry="25" fill="#000" opacity="0.12"/>
      <ellipse cx="250" cy="168" rx="60" ry="18" fill="#000" opacity="0.1"/>
    </g>
    
    <!-- Left Side Window (Close-up, Dramatic Lighting) -->
    <g transform="translate(-380, -150)">
      <!-- Window Frame (Black Aluminum - Modern) -->
      <rect x="0" y="0" width="140" height="250" fill="none" stroke="#18181b" stroke-width="4" rx="2"/>
      
      <!-- Glass with Sky Gradient -->
      <rect x="4" y="4" width="132" height="242" fill="#a5d8ff" opacity="0.25"/>
      <rect x="4" y="4" width="132" height="100" fill="url(#windowLight)" opacity="0.4"/>
      
      <!-- Window Dividers (Cross Pattern) -->
      <line x1="70" y1="4" x2="70" y2="246" stroke="#27272a" stroke-width="3"/>
      <line x1="4" y1="85" x2="136" y2="85" stroke="#27272a" stroke-width="3"/>
      <line x1="4" y1="165" x2="136" y2="165" stroke="#27272a" stroke-width="3"/>
      
      <!-- Realistic Glass Reflections (Clouds/Buildings) -->
      <ellipse cx="40" cy="30" rx="30" ry="22" fill="#ffffff" opacity="0.45" transform="rotate(-15 40 30)"/>
      <ellipse cx="90" cy="55" rx="35" ry="25" fill="#ffffff" opacity="0.35" transform="rotate(20 90 55)"/>
      <rect x="25" y="110" width="15" height="45" fill="#ffffff" opacity="0.25"/>
      <rect x="95" y="120" width="20" height="55" fill="#ffffff" opacity="0.3"/>
      <ellipse cx="50" cy="190" rx="25" ry="18" fill="#ffffff" opacity="0.2"/>
      
      <!-- Window Sill (Wood Detail) -->
      <rect x="-5" y="250" width="150" height="12" fill="#8b6f47" opacity="0.9"/>
      <rect x="-5" y="250" width="150" height="3" fill="#a0826d" opacity="0.6"/>
    </g>
    
    <!-- Volumetric Sunlight Beams (Ultra Realistic) -->
    <g opacity="0.65">
      <!-- Main light beam (brightest) -->
      <path d="M -380,0 L 50,80 L 50,150 L -380,100 Z" fill="#fff8e7" opacity="0.35">
        <animate attributeName="opacity" values="0.3;0.5;0.3" dur="6s" repeatCount="indefinite"/>
      </path>
      <!-- Secondary beam -->
      <path d="M -380,30 L 100,100 L 100,180 L -380,130 Z" fill="#ffe8b3" opacity="0.28">
        <animate attributeName="opacity" values="0.25;0.45;0.25" dur="6s" begin="1s" repeatCount="indefinite"/>
      </path>
      <!-- Tertiary beam -->
      <path d="M -380,60 L 150,120 L 150,200 L -380,160 Z" fill="#ffd580" opacity="0.22">
        <animate attributeName="opacity" values="0.2;0.38;0.2" dur="6s" begin="2s" repeatCount="indefinite"/>
      </path>
      <!-- Ambient diffuse light -->
      <path d="M -380,-30 L 0,40 L 0,100 L -380,60 Z" fill="#fffbf0" opacity="0.18">
        <animate attributeName="opacity" values="0.15;0.32;0.15" dur="6s" begin="3s" repeatCount="indefinite"/>
      </path>
      <!-- Bottom light spread -->
      <path d="M -380,90 L 200,150 L 200,230 L -380,190 Z" fill="#ffb347" opacity="0.15">
        <animate attributeName="opacity" values="0.12;0.28;0.12" dur="6s" begin="4s" repeatCount="indefinite"/>
      </path>
    </g>
    
    <!-- Massive Sun Glow (Volumetric Effect) -->
    <ellipse cx="-380" cy="50" rx="120" ry="150" fill="url(#windowLight)" opacity="0.4" filter="url(#softGlow)">
      <animate attributeName="opacity" values="0.35;0.55;0.35" dur="6s" repeatCount="indefinite"/>
    </ellipse>
    
    <!-- Premium Velvet Armchair (Close-up, Left Side) -->
    <g transform="translate(-200, 20)" filter="url(#deepShadow)">
      <!-- Chair Back (Tall, Curved) -->
      <path d="M -60,-80 Q -55,-120 -45,-130 L 45,-130 Q 55,-120 60,-80 L 50,20 L -50,20 Z" fill="url(#fabricWeave)" opacity="0.95"/>
      <path d="M -58,-80 Q -53,-115 -43,-125 L 43,-125 Q 53,-115 58,-80 L 48,18 L -48,18 Z" fill="#1e40af" opacity="0.3"/>
      
      <!-- Tufted Button Details (Diamond Pattern) -->
      <circle cx="-20" cy="-70" r="3.5" fill="#1e3a8a" opacity="0.8"/>
      <circle cx="20" cy="-70" r="3.5" fill="#1e3a8a" opacity="0.8"/>
      <circle cx="0" cy="-90" r="3.5" fill="#1e3a8a" opacity="0.8"/>
      <circle cx="-20" cy="-40" r="3.5" fill="#1e3a8a" opacity="0.8"/>
      <circle cx="20" cy="-40" r="3.5" fill="#1e3a8a" opacity="0.8"/>
      <circle cx="0" cy="-20" r="3.5" fill="#1e3a8a" opacity="0.8"/>
      
      <!-- Button Stitching Details -->
      <g stroke="#1e3a8a" stroke-width="0.8" fill="none" opacity="0.4">
        <circle cx="-20" cy="-70" r="8"/>
        <circle cx="20" cy="-70" r="8"/>
        <circle cx="0" cy="-90" r="8"/>
        <circle cx="-20" cy="-40" r="8"/>
        <circle cx="20" cy="-40" r="8"/>
        <circle cx="0" cy="-20" r="8"/>
      </g>
      
      <!-- Fabric Highlights (Velvet Sheen) -->
      <ellipse cx="-10" cy="-95" rx="15" ry="10" fill="#60a5fa" opacity="0.35"/>
      <ellipse cx="15" cy="-75" rx="18" ry="12" fill="#60a5fa" opacity="0.3"/>
      <ellipse cx="-15" cy="-50" rx="20" ry="14" fill="#60a5fa" opacity="0.28"/>
      
      <!-- Seat Cushion (Thick & Plush) -->
      <ellipse cx="0" cy="20" rx="70" ry="28" fill="#1e40af" opacity="0.9"/>
      <ellipse cx="0" cy="18" rx="68" ry="26" fill="url(#fabricWeave)" opacity="0.8"/>
      <ellipse cx="-10" cy="12" rx="30" ry="15" fill="#60a5fa" opacity="0.25"/>
      
      <!-- Seat Piping Detail -->
      <ellipse cx="0" cy="20" rx="70" ry="28" fill="none" stroke="#1e3a8a" stroke-width="1.5" opacity="0.6"/>
      
      <!-- Armrests (Curved, Elegant) -->
      <path d="M -52,-60 Q -70,-50 -75,-20 L -70,15 Q -65,20 -55,20 L -50,18 L -48,-60 Z" fill="#2563eb" opacity="0.85"/>
      <path d="M 52,-60 Q 70,-50 75,-20 L 70,15 Q 65,20 55,20 L 50,18 L 48,-60 Z" fill="#2563eb" opacity="0.85"/>
      
      <!-- Armrest Highlights -->
      <ellipse cx="-62" cy="-35" rx="8" ry="15" fill="#60a5fa" opacity="0.3" transform="rotate(-20 -62 -35)"/>
      <ellipse cx="62" cy="-35" rx="8" ry="15" fill="#60a5fa" opacity="0.3" transform="rotate(20 62 -35)"/>
      
      <!-- Wooden Legs (Turned Design) -->
      <g opacity="0.9">
        <path d="M -50,20 L -52,50 Q -50,55 -48,60 L -46,120" stroke="#6b4423" stroke-width="6" stroke-linecap="round"/>
        <path d="M 50,20 L 52,50 Q 50,55 48,60 L 46,120" stroke="#6b4423" stroke-width="6" stroke-linecap="round"/>
        <path d="M -55,22 L -56,40 Q -54,42 -52,44 L -50,100" stroke="#6b4423" stroke-width="5" stroke-linecap="round" opacity="0.7"/>
        <path d="M 55,22 L 56,40 Q 54,42 52,44 L 50,100" stroke="#6b4423" stroke-width="5" stroke-linecap="round" opacity="0.7"/>
        
        <!-- Leg turning details -->
        <ellipse cx="-50" cy="70" rx="4" ry="2" fill="#8b6f47"/>
        <ellipse cx="48" cy="70" rx="4" ry="2" fill="#8b6f47"/>
      </g>
      
      <!-- Decorative Cushion -->
      <ellipse cx="5" cy="-5" rx="22" ry="16" fill="#f59e0b" opacity="0.9" transform="rotate(-25 5 -5)"/>
      <ellipse cx="5" cy="-7" rx="10" ry="7" fill="#fbbf24" opacity="0.5" transform="rotate(-25 5 -7)"/>
      <path d="M -10,-5 Q 5,-8 20,-5" stroke="#d97706" stroke-width="1.5" fill="none" opacity="0.6"/>
    </g>
    
    <!-- Modern Side Table with Lamp (Center-Right) -->
    <g transform="translate(100, 50)" filter="url(#deepShadow)">
      <!-- Marble Table Top -->
      <ellipse cx="0" cy="0" rx="55" ry="24" fill="#f5f5f5" opacity="0.95"/>
      <ellipse cx="0" cy="0" rx="53" ry="22" fill="#e5e7eb" opacity="0.8"/>
      
      <!-- Marble Veining (Realistic) -->
      <g opacity="0.25" stroke="#9ca3af" stroke-width="0.8" fill="none">
        <path d="M -40,-5 Q -20,-8 0,-5 Q 20,-2 40,-5"/>
        <path d="M -35,3 Q -15,0 5,3 Q 25,6 45,3"/>
        <path d="M -45,-10 Q -25,-12 -5,-10 Q 15,-8 35,-10"/>
      </g>
      
      <!-- Table Reflection/Shine -->
      <ellipse cx="-15" cy="-3" rx="25" ry="10" fill="#ffffff" opacity="0.35"/>
      <ellipse cx="20" cy="1" rx="18" ry="8" fill="#ffffff" opacity="0.25"/>
      
      <!-- Gold Metal Base -->
      <path d="M -8,3 L -10,18 Q -8,20 0,20 Q 8,20 10,18 L 8,3 Z" fill="#d4af37" opacity="0.9"/>
      <ellipse cx="0" cy="3" rx="8" ry="3" fill="#f3d15f" opacity="0.8"/>
      
      <!-- Gold Legs (Tapered) -->
      <line x1="-6" y1="20" x2="-9" y2="60" stroke="#d4af37" stroke-width="3.5" stroke-linecap="round" opacity="0.95"/>
      <line x1="6" y1="20" x2="9" y2="60" stroke="#d4af37" stroke-width="3.5" stroke-linecap="round" opacity="0.95"/>
      
      <!-- Table Lamp (Designer Piece) -->
      <g transform="translate(0, -35)">
        <!-- Lamp Base (Ceramic) -->
        <ellipse cx="0" cy="20" rx="12" ry="5" fill="#2c3e50" opacity="0.95"/>
        <path d="M -12,20 Q -10,10 -8,0 L 8,0 Q 10,10 12,20 Z" fill="#34495e" opacity="0.9"/>
        
        <!-- Lamp Neck -->
        <rect x="-2" y="-25" width="4" height="25" fill="#d4af37" opacity="0.85"/>
        
        <!-- Lamp Shade (Linen) -->
        <path d="M -25,-25 L -20,-55 L 20,-55 L 25,-25 Z" fill="#fef3c7" opacity="0.85"/>
        <path d="M -24,-26 L -19,-54 L 19,-54 L 24,-26 Z" fill="#fffbeb" opacity="0.6"/>
        
        <!-- Lamp Glow (Active) -->
        <ellipse cx="0" cy="-40" rx="35" ry="25" fill="url(#ambientGlow)" opacity="0.6">
          <animate attributeName="opacity" values="0.5;0.7;0.5" dur="4s" repeatCount="indefinite"/>
        </ellipse>
        
        <!-- Light Bulb Visible Through Shade -->
        <ellipse cx="0" cy="-30" rx="6" ry="8" fill="#fffbeb" opacity="0.7">
          <animate attributeName="opacity" values="0.6;0.85;0.6" dur="4s" repeatCount="indefinite"/>
        </ellipse>
      </g>
      
      <!-- Coffee Cup on Table -->
      <g transform="translate(-25, -8)">
        <ellipse cx="0" cy="0" rx="8" ry="4" fill="#2c3e50" opacity="0.9"/>
        <path d="M -8,0 L -7,-8 L 7,-8 L 8,0 Z" fill="#34495e" opacity="0.85"/>
        <ellipse cx="0" cy="-8" rx="7" ry="3" fill="#6b4423" opacity="0.6"/>
        <!-- Cup handle -->
        <path d="M 8,-4 Q 14,-4 14,-3 Q 14,-2 8,-2" stroke="#34495e" stroke-width="1.5" fill="none"/>
        <!-- Steam (animated) -->
        <path d="M -2,-10 Q -3,-15 -2,-18" stroke="#94a3b8" stroke-width="0.8" fill="none" opacity="0.4">
          <animate attributeName="opacity" values="0.2;0.5;0.2" dur="3s" repeatCount="indefinite"/>
        </path>
        <path d="M 2,-10 Q 3,-16 2,-19" stroke="#94a3b8" stroke-width="0.8" fill="none" opacity="0.3">
          <animate attributeName="opacity" values="0.3;0.6;0.3" dur="3s" begin="0.5s" repeatCount="indefinite"/>
        </path>
      </g>
      
      <!-- Decorative Book Stack -->
      <g transform="translate(22, -5)">
        <rect x="0" y="0" width="25" height="8" fill="#7c2d12" rx="1" opacity="0.9"/>
        <rect x="1" y="1" width="23" height="1.5" fill="#ea580c" opacity="0.5"/>
        <rect x="0" y="-8" width="25" height="8" fill="#1e3a8a" rx="1" opacity="0.85"/>
        <rect x="1" y="-7" width="23" height="1.5" fill="#3b82f6" opacity="0.5"/>
      </g>
    </g>
    
    <!-- Fiddle Leaf Fig Plant (Right Side, Foreground) -->
    <g transform="translate(300, 30)" filter="url(#deepShadow)">
      <!-- Large Designer Planter (Ceramic) -->
      <path d="M -20,30 L -16,20 L 16,20 L 20,30 Z" fill="#e5e7eb" opacity="0.95"/>
      <ellipse cx="0" cy="30" rx="20" ry="7" fill="#d1d5db" opacity="0.9"/>
      <ellipse cx="0" cy="20" rx="16" ry="5" fill="#9ca3af" opacity="0.4"/>
      
      <!-- Planter Rim -->
      <ellipse cx="0" cy="20" rx="16" ry="5" fill="none" stroke="#6b7280" stroke-width="1" opacity="0.5"/>
      
      <!-- Soil Surface -->
      <ellipse cx="0" cy="20" rx="14" ry="4" fill="#6b4423" opacity="0.8"/>
      
      <!-- Main Trunk (Thick, Textured) -->
      <rect x="-4" y="-10" width="8" height="32" fill="#7c5d3b" rx="2" opacity="0.9"/>
      <rect x="-3" y="-10" width="6" height="32" fill="#8b6f47" rx="1.5" opacity="0.7"/>
      
      <!-- Trunk Texture Lines -->
      <g opacity="0.3" stroke="#5c4a30" stroke-width="0.5">
        <line x1="-3" y1="-5" x2="3" y2="-5"/>
        <line x1="-3" y1="5" x2="3" y2="5"/>
        <line x1="-3" y1="15" x2="3" y2="15"/>
      </g>
      
      <!-- Large Photorealistic Leaves -->
      <!-- Back Left Leaf -->
      <ellipse cx="-35" cy="-30" rx="22" ry="28" fill="#15803d" opacity="0.92" transform="rotate(-35 -35 -30)"/>
      <path d="M -35,2 Q -37,-10 -35,-30" stroke="#14532d" stroke-width="1.5" fill="none" opacity="0.4"/>
      
      <!-- Top Center Leaf -->
      <ellipse cx="0" cy="-50" rx="24" ry="30" fill="#16a34a" opacity="0.95" transform="rotate(-5 0 -50)"/>
      <path d="M 0,-10 Q -1,-30 0,-50" stroke="#14532d" stroke-width="1.8" fill="none" opacity="0.5"/>
      
      <!-- Right Top Leaf -->
      <ellipse cx="35" cy="-45" rx="23" ry="29" fill="#15803d" opacity="0.94" transform="rotate(30 35 -45)"/>
      <path d="M 0,-10 Q 15,-25 35,-45" stroke="#14532d" stroke-width="1.6" fill="none" opacity="0.45"/>
      
      <!-- Front Left Leaf (Larger) -->
      <ellipse cx="-45" cy="-15" rx="26" ry="32" fill="#22c55e" opacity="0.96" transform="rotate(-40 -45 -15)"/>
      <path d="M 0,-5 Q -20,-8 -45,-15" stroke="#166534" stroke-width="2" fill="none" opacity="0.5"/>
      
      <!-- Front Right Leaf (Largest, Foreground) -->
      <ellipse cx="40" cy="-20" rx="28" ry="34" fill="#16a34a" opacity="0.97" transform="rotate(35 40 -20)"/>
      <path d="M 0,-5 Q 18,-10 40,-20" stroke="#166534" stroke-width="2.2" fill="none" opacity="0.55"/>
      
      <!-- Center Front Leaf -->
      <ellipse cx="5" cy="-10" rx="25" ry="31" fill="#22c55e" opacity="0.95" transform="rotate(8 5 -10)"/>
      <path d="M 0,-5 Q 2,-7 5,-10" stroke="#166534" stroke-width="1.8" fill="none" opacity="0.5"/>
      
      <!-- Leaf Vein Details (More Realistic) -->
      <g stroke="#14532d" stroke-width="0.6" fill="none" opacity="0.35">
        <!-- Left leaf veins -->
        <path d="M -45,-15 Q -42,-12 -40,-8"/>
        <path d="M -45,-15 Q -48,-10 -50,-5"/>
        <!-- Right leaf veins -->
        <path d="M 40,-20 Q 38,-15 36,-10"/>
        <path d="M 40,-20 Q 43,-15 45,-10"/>
        <!-- Top leaf veins -->
        <path d="M 0,-50 Q -3,-45 -5,-40"/>
        <path d="M 0,-50 Q 3,-45 5,-40"/>
      </g>
      
      <!-- Leaf Highlights (Sheen) -->
      <ellipse cx="-40" cy="-18" rx="8" ry="12" fill="#4ade80" opacity="0.35" transform="rotate(-40 -40 -18)"/>
      <ellipse cx="38" cy="-25" rx="10" ry="14" fill="#4ade80" opacity="0.4" transform="rotate(35 38 -25)"/>
      <ellipse cx="2" cy="-52" rx="9" ry="13" fill="#4ade80" opacity="0.38" transform="rotate(-5 2 -52)"/>
    </g>
    
    <!-- Floating Dust Particles in Sunbeams (Cinematic) -->
    <g opacity="0.7">
      <circle r="2.5" fill="#fffbf0" filter="url(#softGlow)">
        <animateMotion path="M -350,-60 Q -150,-40 50,-60 T 450,-60" dur="14s" repeatCount="indefinite"/>
        <animate attributeName="opacity" values="0.4;0.8;0.4" dur="7s" repeatCount="indefinite"/>
      </circle>
      <circle r="2" fill="#ffe8b3" filter="url(#softGlow)">
        <animateMotion path="M 450,-50 Q 200,-70 -50,-50 T -450,-50" dur="16s" repeatCount="indefinite"/>
        <animate attributeName="opacity" values="0.35;0.75;0.35" dur="8s" repeatCount="indefinite"/>
      </circle>
      <circle r="2.8" fill="#ffd580" filter="url(#softGlow)">
        <animateMotion path="M -280,10 Q 0,30 280,10 T -280,10" dur="18s" repeatCount="indefinite"/>
        <animate attributeName="opacity" values="0.45;0.85;0.45" dur="9s" repeatCount="indefinite"/>
      </circle>
      <circle r="2.3" fill="#fffbf0" filter="url(#softGlow)">
        <animateMotion path="M 300,-30 Q 0,-10 -300,-30 T 300,-30" dur="15s" repeatCount="indefinite"/>
        <animate attributeName="opacity" values="0.38;0.72;0.38" dur="7.5s" repeatCount="indefinite"/>
      </circle>
      <circle r="2.6" fill="#ffe8b3" filter="url(#softGlow)">
        <animateMotion path="M -200,20 Q 100,50 400,20 T -200,20" dur="17s" repeatCount="indefinite"/>
        <animate attributeName="opacity" values="0.42;0.78;0.42" dur="8.5s" repeatCount="indefinite"/>
      </circle>
      <circle r="2.2" fill="#ffd580" filter="url(#softGlow)">
        <animateMotion path="M 250,-40 Q -50,-20 -350,-40 T 250,-40" dur="13s" repeatCount="indefinite"/>
        <animate attributeName="opacity" values="0.36;0.68;0.36" dur="6.5s" repeatCount="indefinite"/>
      </circle>
    </g>
    
  </g>
  
  <!-- Premium Feature Bar (Bottom) -->
  <g transform="translate(600, 565)">
    <!-- Glassmorphism Background -->
    <rect x="-450" y="-28" width="900" height="56" rx="16" fill="#0a0f1e" opacity="0.92"/>
    <rect x="-450" y="-28" width="900" height="56" rx="16" fill="url(#bgGrad)" opacity="0.35"/>
    <rect x="-448" y="-26" width="896" height="52" rx="15" fill="none" stroke="#334155" stroke-width="1.2" opacity="0.35"/>
    
    <!-- Feature Pills -->
    <g opacity="0.96">
      <!-- Natural Lighting -->
      <rect x="-390" y="-10" width="170" height="36" rx="18" fill="#fbbf24" opacity="0.15"/>
      <text x="-378" y="10" fill="#fbbf24" font-size="20" font-weight="700" font-family="system-ui, sans-serif">☀️</text>
      <text x="-350" y="10" fill="#fde68a" font-size="16" font-weight="700" font-family="system-ui, sans-serif" letter-spacing="0.5">NATURAL LIGHTING</text>
      
      <circle cx="-202" cy="8" r="2.5" fill="#475569" opacity="0.6"/>
      
      <!-- PBR Materials -->
      <rect x="-170" y="-10" width="160" height="36" rx="18" fill="#3b82f6" opacity="0.15"/>
      <text x="-158" y="10" fill="#60a5fa" font-size="20" font-weight="700" font-family="system-ui, sans-serif">🎨</text>
      <text x="-130" y="10" fill="#93c5fd" font-size="16" font-weight="700" font-family="system-ui, sans-serif" letter-spacing="0.5">PBR MATERIALS</text>
      
      <circle cx="8" cy="8" r="2.5" fill="#475569" opacity="0.6"/>
      
      <!-- Composition -->
      <rect x="38" y="-10" width="160" height="36" rx="18" fill="#10b981" opacity="0.15"/>
      <text x="50" y="10" fill="#10b981" font-size="20" font-weight="700" font-family="system-ui, sans-serif">📷</text>
      <text x="78" y="10" fill="#6ee7b7" font-size="16" font-weight="700" font-family="system-ui, sans-serif" letter-spacing="0.5">COMPOSITION</text>
      
      <circle cx="215" cy="8" r="2.5" fill="#475569" opacity="0.6"/>
      
      <!-- Photoreal -->
      <rect x="245" y="-10" width="145" height="36" rx="18" fill="#f59e0b" opacity="0.15"/>
      <text x="257" y="10" fill="#fbbf24" font-size="20" font-weight="700" font-family="system-ui, sans-serif">✨</text>
      <text x="285" y="10" fill="#fde68a" font-size="16" font-weight="700" font-family="system-ui, sans-serif" letter-spacing="0.5">PHOTOREAL</text>
    </g>
  </g>
  
</svg>