<svg xmlns="http://www.w3.org/2000/svg" viewBox="0 0 1200 600" role="img"><title>Photorealistic Interior Room Close-up</title><defs><linearGradient id="bgGrad" x1="0%" y1="0%" x2="100%" y2="100%"><stop offset="0%" style="stop-color:#0a0f1e"/><stop offset="50%" style="stop-color:#1a1f35"/><stop offset="100%" style="stop-color:#0d1228"/></linearGradient><radialGradient id="windowLight" cx="20%" cy="30%"><stop offset="0%" style="stop-color:#fffbf0;stop-opacity:1"/><stop offset="25%" style="stop-color:#ffe8b3;stop-opacity:0.8"/><stop offset="55%" style="stop-color:#ffd580;stop-opacity:0.4"/><stop offset="100%" style="stop-color:#ffb347;stop-opacity:0"/></radialGradient><radialGradient id="ambientGlow" cx="50%" cy="50%"><stop offset="0%" style="stop-color:#fff;stop-opacity:0.6"/><stop offset="50%" style="stop-color:#fef3c7;stop-opacity:0.3"/><stop offset="100%" style="stop-color:#fde68a;stop-opacity:0"/></radialGradient><pattern id="leatherTexture" x="0" y="0" width="8" height="8" patternUnits="userSpaceOnUse"><rect width="8" height="8" fill="#2c3e50"/><circle cx="2" cy="2" r="0.3" fill="#34495e" opacity="0.6"/><circle cx="6" cy="6" r="0.3" fill="#34495e" opacity="0.6"/><circle cx="4" cy="4" r="0.2" fill="#2c3e50" opacity="0.8"/></pattern><pattern id="woodGrain" x="0" y="0" width="60" height="20" patternUnits="userSpaceOnUse"><rect width="60" height="20" fill="#8b6f47"/><path d="M0,5Q15,3 30,5T60,5" stroke="#6b5636" stroke-width="0.3" fill="none" opacity="0.4"/><path d="M0,10Q15,12 30,10T60,10" stroke="#6b5636" stroke-width="0.3" fill="none" opacity="0.3"/><path d="M0,15Q15,14 30,15T60,15" stroke="#6b5636" stroke-width="0.3" fill="none" opacity="0.5"/></pattern><pattern id="fabricWeave" x="0" y="0" width="4" height="4" patternUnits="userSpaceOnUse"><rect width="4" height="4" fill="#1e40af"/><line x1="0" y1="2" x2="4" y2="2" stroke="#2563eb" stroke-width="0.5" opacity="0.3"/><line x1="2" y1="0" x2="2" y2="4" stroke="#1e3a8a" stroke-width="0.5" opacity="0.3"/></pattern><filter id="deepShadow"><feGaussianBlur in="SourceAlpha" stdDeviation="4"/><feOffset dx="3" dy="5" result="offsetblur"/><feComponentTransfer><feFuncA type="linear" slope="0.5"/></feComponentTransfer><feMerge><feMergeNode/><feMergeNode in="SourceGraphic"/></feMerge></filter><filter id="softGlow"><feGaussianBlur stdDeviation="5" result="coloredBlur"/><feMerge><feMergeNode in="coloredBlur"/><feMergeNode in="coloredBlur"/><feMergeNode in="SourceGraphic"/></feMerge></filter><linearGradient id="glassReflection" x1="0%" y1="0%" x2="0%" y2="100%"><stop offset="0%" style="stop-color:#fff;stop-opacity:0.6"/><stop offset="50%" style="stop-color:#e0f2fe;stop-opacity:0.3"/><stop offset="100%" style="stop-color:#bae6fd;stop-opacity:0.1"/></linearGradient></defs><rect width="1200" height="600" fill="url(#bgGrad)"/><ellipse cx="300" cy="200" rx="400" ry="300" fill="#1e3a8a" opacity="0.06"/><ellipse cx="900" cy="350" rx="350" ry="280" fill="#6d28d9" opacity="0.05"/><g transform="translate(600,320)"><g><path d="M-500,180L-400,140L400,140L500,180Z" fill="url(#woodGrain)" opacity="0.95" filter="url(#deepShadow)"/><g opacity="0.35" stroke="#4a3520" stroke-width="1.2"><line x1="-480" y1="183" x2="480" y2="143"/><line x1="-460" y1="186" x2="460" y2="148"/><line x1="-440" y1="189" x2="440" y2="152"/><line x1="-420" y1="192" x2="420" y2="156"/><line x1="-200" y1="145" x2="-240" y2="175"/><line x1="0" y1="140" x2="0" y2="170"/><line x1="200" y1="145" x2="160" y2="175"/></g><g opacity="0.2"><path d="M-450,145Q-300,147-150,145T150,145" stroke="#5c4a30" stroke-width="0.8" fill="none"/><path d="M-400,150Q-250,148-100,150T200,150" stroke="#5c4a30" stroke-width="0.8" fill="none"/><path d="M-350,155Q-200,157-50,155T250,155" stroke="#5c4a30" stroke-width="0.8" fill="none"/></g><ellipse cx="-150" cy="165" rx="80" ry="20" fill="#000" opacity="0.15"/><ellipse cx="50" cy="170" rx="100" ry="25" fill="#000" opacity="0.12"/><ellipse cx="250" cy="168" rx="60" ry="18" fill="#000" opacity="0.1"/></g><g transform="translate(-380,-150)"><rect x="0" y="0" width="140" height="250" fill="none" stroke="#18181b" stroke-width="4" rx="2"/><rect x="4" y="4" width="132" height="242" fill="#a5d8ff" opacity="0.25"/><rect x="4" y="4" width="132" height="100" fill="url(#windowLight)" opacity="0.4"/><line x1="70" y1="4" x2="70" y2="246" stroke="#27272a" stroke-width="3"/><line x1="4" y1="85" x2="136" y2="85" stroke="#27272a" stroke-width="3"/><line x1="4" y1="165" x2="136" y2="165" stroke="#27272a" stroke-width="3"/><ellipse cx="40" cy="30" rx="30" ry="22" fill="#fff" opacity="0.45" transform="rotate(-15 40 30)"/><ellipse cx="90" cy="55" rx="35" ry="25" fill="#fff" opacity="0.35" transform="rotate(20 90 55)"/><rect x="25" y="110" width="15" height="45" fill="#fff" opacity="0.25"/><rect x="95" y="120" width="20" height="55" fill="#fff" opacity="0.3"/><ellipse cx="50" cy="190" rx="25" ry="18" fill="#fff" opacity="0.2"/><rect x="-5" y="250" width="150" height="12" fill="#8b6f47" opacity="0.9"/><rect x="-5" y="250" width="150" height="3" fill="#a0826d" opacity="0.6"/></g><g opacity="0.65"><path d="M-380,0L50,80L50,150L-380,100Z" fill="#fff8e7" opacity="0.35"/><path d="M-380,30L100,100L100,180L-380,130Z" fill="#ffe8b3" opacity="0.28"/><path d="M-380,60L150,120L150,200L-380,160Z" fill="#ffd580" opacity="0.22"/><path d="M-380,-30L0,40L0,100L-380,60Z" fill="#fffbf0" opacity="0.18"/><path d="M-380,90L200,150L200,230L-380,190Z" fill="#ffb347" opacity="0.15"/></g><ellipse cx="-380" cy="50" rx="120" ry="150" fill="url(#windowLight)" opacity="0.4" filter="url(#softGlow)"/><g transform="translate(-200,20)" filter="url(#deepShadow)"><path d="M-60,-80Q-55,-120-45,-130L45,-130Q55,-120 60,-80L50,20L-50,20Z" fill="url(#fabricWeave)" opacity="0.95"/><path d="M-58,-80Q-53,-115-43,-125L43,-125Q53,-115 58,-80L48,18L-48,18Z" fill="#1e40af" opacity="0.3"/><circle cx="-20" cy="-70" r="3.5" fill="#1e3a8a" opacity="0.8"/><circle cx="20" cy="-70" r="3.5" fill="#1e3a8a" opacity="0.8"/><circle cx="0" cy="-90" r="3.5" fill="#1e3a8a" opacity="0.8"/><circle cx="-20" cy="-40" r="3.5" fill="#1e3a8a" opacity="0.8"/><circle cx="20" cy="-40" r="3.5" fill="#1e3a8a" opacity="0.8"/><circle cx="0" cy="-20" r="3.5" fill="#1e3a8a" opacity="0.8"/><g stroke="#1e3a8a" stroke-width="0.8" fill="none" opacity="0.4"><circle cx="-20" cy="-70" r="8"/><circle cx="20" cy="-70" r="8"/><circle cx="0" cy="-90" r="8"/><circle cx="-20" cy="-40" r="8"/><circle cx="20" cy="-40" r="8"/><circle cx="0" cy="-20" r="8"/></g><ellipse cx="-10" cy="-95" rx="15" ry="10" fill="#60a5fa" opacity="0.35"/><ellipse cx="15" cy="-75" rx="18" ry="12" fill="#60a5fa" opacity="0.3"/><ellipse cx="-15" cy="-50" rx="20" ry="14" fill="#60a5fa" opacity="0.28"/><ellipse cx="0" cy="20" rx="70" ry="28" fill="#1e40af" opacity="0.9"/><ellipse cx="0" cy="18" rx="68" ry="26" fill="url(#fabricWeave)" opacity="0.8"/><ellipse cx="-10" cy="12" rx="30" ry="15" fill="#60a5fa" opacity="0.25"/><ellipse cx="0" cy="20" rx="70" ry="28" fill="none" stroke="#1e3a8a" stroke-width="1.5" opacity="0.6"/><path d="M-52,-60Q-70,-50-75,-20L-70,15Q-65,20-55,20L-50,18L-48,-60Z" fill="#2563eb" opacity="0.85"/><path d="M52,-60Q70,-50 75,-20L70,15Q65,20 55,20L50,18L48,-60Z" fill="#2563eb" opacity="0.85"/><ellipse cx="-62" cy="-35" rx="8" ry="15" fill="#60a5fa" opacity="0.3" transform="rotate(-20 -62 -35)"/><ellipse cx="62" cy="-35" rx="8" ry="15" fill="#60a5fa" opacity="0.3" transform="rotate(20 62 -35)"/><g opacity="0.9"><path d="M-50,20L-52,50Q-50,55-48,60L-46,120" stroke="#6b4423" stroke-width="6" stroke-linecap="round"/><path d="M50,20L52,50Q50,55 48,60L46,120" stroke="#6b4423" stroke-width="6" stroke-linecap="round"/><path d="M-55,22L-56,40Q-54,42-52,44L-50,100" stroke="#6b4423" stroke-width="5" stroke-linecap="round" opacity="0.7"/><path d="M55,22L56,40Q54,42 52,44L50,100" stroke="#6b4423" stroke-width="5" stroke-linecap="round" opacity="0.7"/><ellipse cx="-50" cy="70" rx="4" ry="2" fill="#8b6f47"/><ellipse cx="48" cy="70" rx="4" ry="2" fill="#8b6f47"/></g><ellipse cx="5" cy="-5" rx="22" ry="16" fill="#f59e0b" opacity="0.9" transform="rotate(-25 5 -5)"/><ellipse cx="5" cy="-7" rx="10" ry="7" fill="#fbbf24" opacity="0.5" transform="rotate(-25 5 -7)"/><path d="M-10,-5Q5,-8 20,-5" stroke="#d97706" stroke-width="1.5" fill="none" opacity="0.6"/></g><g transform="translate(100,50)" filter="url(#deepShadow)"><ellipse cx="0" cy="0" rx="55" ry="24" fill="#f5f5f5" opacity="0.95"/><ellipse cx="0" cy="0" rx="53" ry="22" fill="#e5e7eb" opacity="0.8"/><g opacity="0.25" stroke="#9ca3af" stroke-width="0.8" fill="none"><path d="M-40,-5Q-20,-8 0,-5Q20,-2 40,-5"/><path d="M-35,3Q-15,0 5,3Q25,6 45,3"/><path d="M-45,-10Q-25,-12-5,-10Q15,-8 35,-10"/></g><ellipse cx="-15" cy="-3" rx="25" ry="10" fill="#fff" opacity="0.35"/><ellipse cx="20" cy="1" rx="18" ry="8" fill="#fff" opacity="0.25"/><path d="M-8,3L-10,18Q-8,20 0,20Q8,20 10,18L8,3Z" fill="#d4af37" opacity="0.9"/><ellipse cx="0" cy="3" rx="8" ry="3" fill="#f3d15f" opacity="0.8"/><line x1="-6" y1="20" x2="-9" y2="60" stroke="#d4af37" stroke-width="3.5" stroke-linecap="round" opacity="0.95"/><line x1="6" y1="20" x2="9" y2="60" stroke="#d4af37" stroke-width="3.5" stroke-linecap="round" opacity="0.95"/><g transform="translate(0,-35)"><ellipse cx="0" cy="20" rx="12" ry="5" fill="#2c3e50" opacity="0.95"/><path d="M-12,20Q-10,10-8,0L8,0Q10,10 12,20Z" fill="#34495e" opacity="0.9"/><rect x="-2" y="-25" width="4" height="25" fill="#d4af37" opacity="0.85"/><path d="M-25,-25L-20,-55L20,-55L25,-25Z" fill="#fef3c7" opacity="0.85"/><path d="M-24,-26L-19,-54L19,-54L24,-26Z" fill="#fffbeb" opacity="0.6"/><ellipse cx="0" cy="-40" rx="35" ry="25" fill="url(#ambientGlow)" opacity="0.6"/><ellipse cx="0" cy="-30" rx="6" ry="8" fill="#fffbeb" opacity="0.7"/></g><g transform="translate(-25,-8)"><ellipse cx="0" cy="0" rx="8" ry="4" fill="#2c3e50" opacity="0.9"/><path d="M-8,0L-7,-8L7,-8L8,0Z" fill="#34495e" opacity="0.85"/><ellipse cx="0" cy="-8" rx="7" ry="3" fill="#6b4423" opacity="0.6"/><path d="M8,-4Q14,-4 14,-3Q14,-2 8,-2" stroke="#34495e" stroke-width="1.5" fill="none"/><path d="M-2,-10Q-3,-15-2,-18" stroke="#94a3b8" stroke-width="0.8" fill="none" opacity="0.4"/><path d="M2,-10Q3,-16 2,-19" stroke="#94a3b8" stroke-width="0.8" fill="none" opacity="0.3"/></g><g transform="translate(22,-5)"><rect x="0" y="0" width="25" height="8" fill="#7c2d12" rx="1" opacity="0.9"/><rect x="1" y="1" width="23" height="1.5" fill="#ea580c" opacity="0.5"/><rect x="0" y="-8" width="25" height="8" fill="#1e3a8a" rx="1" opacity="0.85"/><rect x="1" y="-7" width="23" height="1.5" fill="#3b82f6" opacity="0.5"/></g></g><g transform="translate(300,30)" filter="url(#deepShadow)"><path d="M-20,30L-16,20L16,20L20,30Z" fill="#e5e7eb" opacity="0.95"/><ellipse cx="0" cy="30" rx="20" ry="7" fill="#d1d5db" opacity="0.9"/><ellipse cx="0" cy="20" rx="16" ry="5" fill="#9ca3af" opacity="0.4"/><ellipse cx="0" cy="20" rx="16" ry="5" fill="none" stroke="#6b7280" stroke-width="1" opacity="0.5"/><ellipse cx="0" cy="20" rx="14" ry="4" fill="#6b4423" opacity="0.8"/><rect x="-4" y="-10" width="8" height="32" fill="#7c5d3b" rx="2" opacity="0.9"/><rect x="-3" y="-10" width="6" height="32" fill="#8b6f47" rx="1.5" opacity="0.7"/><g opacity="0.3" stroke="#5c4a30" stroke-width="0.5"><line x1="-3" y1="-5" x2="3" y2="-5"/><line x1="-3" y1="5" x2="3" y2="5"/><line x1="-3" y1="15" x2="3" y2="15"/></g><ellipse cx="-35" cy="-30" rx="22" ry="28" fill="#15803d" opacity="0.92" transform="rotate(-35 -35 -30)"/><path d="M-35,2Q-37,-10-35,-30" stroke="#14532d" stroke-width="1.5" fill="none" opacity="0.4"/><ellipse cx="0" cy="-50" rx="24" ry="30" fill="#16a34a" opacity="0.95" transform="rotate(-5 0 -50)"/><path d="M0,-10Q-1,-30 0,-50" stroke="#14532d" stroke-width="1.8" fill="none" opacity="0.5"/><ellipse cx="35" cy="-45" rx="23" ry="29" fill="#15803d" opacity="0.94" transform="rotate(30 35 -45)"/><path d="M0,-10Q15,-25 35,-45" stroke="#14532d" stroke-width="1.6" fill="none" opacity="0.45"/><ellipse cx="-45" cy="-15" rx="26" ry="32" fill="#22c55e" opacity="0.96" transform="rotate(-40 -45 -15)"/><path d="M0,-5Q-20,-8-45,-15" stroke="#166534" stroke-width="2" fill="none" opacity="0.5"/><ellipse cx="40" cy="-20" rx="28" ry="34" fill="#16a34a" opacity="0.97" transform="rotate(35 40 -20)"/><path d="M0,-5Q18,-10 40,-20" stroke="#166534" stroke-width="2.2" fill="none" opacity="0.55"/><ellipse cx="5" cy="-10" rx="25" ry="31" fill="#22c55e" opacity="0.95" transform="rotate(8 5 -10)"/><path d="M0,-5Q2,-7 5,-10" stroke="#166534" stroke-width="1.8" fill="none" opacity="0.5"/><g stroke="#14532d" stroke-width="0.6" fill="none" opacity="0.35"><path d="M-45,-15Q-42,-12-40,-8"/><path d="M-45,-15Q-48,-10-50,-5"/><path d="M40,-20Q38,-15 36,-10"/><path d="M40,-20Q43,-15 45,-10"/><path d="M0,-50Q-3,-45-5,-40"/><path d="M0,-50Q3,-45 5,-40"/></g><ellipse cx="-40" cy="-18" rx="8" ry="12" fill="#4ade80" opacity="0.35" transform="rotate(-40 -40 -18)"/><ellipse cx="38" cy="-25" rx="10" ry="14" fill="#4ade80" opacity="0.4" transform="rotate(35 38 -25)"/><ellipse cx="2" cy="-52" rx="9" ry="13" fill="#4ade80" opacity="0.38" transform="rotate(-5 2 -52)"/></g><g opacity="0.7"><circle r="2.5" fill="#fffbf0" filter="url(#softGlow)"><animateMotion path="M-350,-60Q-150,-40 50,-60T450,-60" dur="14s" repeatCount="indefinite"/></circle><circle r="2" fill="#ffe8b3" filter="url(#softGlow)"><animateMotion path="M450,-50Q200,-70-50,-50T-450,-50" dur="16s" repeatCount="indefinite"/></circle><circle r="2.8" fill="#ffd580" filter="url(#softGlow)"><animateMotion path="M-280,10Q0,30 280,10T-280,10" dur="18s" repeatCount="indefinite"/></circle><circle r="2.3" fill="#fffbf0" filter="url(#softGlow)"><animateMotion path="M300,-30Q0,-10-300,-30T300,-30" dur="15s" repeatCount="indefinite"/></circle><circle r="2.6" fill="#ffe8b3" filter="url(#softGlow)"><animateMotion path="M-200,20Q100,50 400,20T-200,20" dur="17s" repeatCount="indefinite"/></circle><circle r="2.2" fill="#ffd580" filter="url(#softGlow)"><animateMotion path="M250,-40Q-50,-20-350,-40T250,-40" dur="13s" repeatCount="indefinite"/></circle></g></g><g transform="translate(600,565)"><rect x="-450" y="-28" width="900" height="56" rx="16" fill="#0a0f1e" opacity="0.92"/><rect x="-450" y="-28" width="900" height="56" rx="16" fill="url(#bgGrad)" opacity="0.35"/><rect x="-448" y="-26" width="896" height="52" rx="15" fill="none" stroke="#334155" stroke-width="1.2" opacity="0.35"/><g opacity="0.96"><rect x="-390" y="-10" width="170" height="36" rx="18" fill="#fbbf24" opacity="0.15"/><text x="-378" y="10" fill="#fbbf24" font-size="20" font-weight="700" font-family="system-ui,sans-serif">☀️</text><text x="-350" y="10" fill="#fde68a" font-size="16" font-weight="700" font-family="system-ui,sans-serif" letter-spacing="0.5">NATURAL LIGHTING</text><circle cx="-202" cy="8" r="2.5" fill="#475569" opacity="0.6"/><rect x="-170" y="-10" width="160" height="36" rx="18" fill="#3b82f6" opacity="0.15"/><text x="-158" y="10" fill="#60a5fa" font-size="20" font-weight="700" font-family="system-ui,sans-serif">🎨</text><text x="-130" y="10" fill="#93c5fd" font-size="16" font-weight="700" font-family="system-ui,sans-serif" letter-spacing="0.5">PBR MATERIALS</text><circle cx="8" cy="8" r="2.5" fill="#475569" opacity="0.6"/><rect x="38" y="-10" width="160" height="36" rx="18" fill="#10b981" opacity="0.15"/><text x="50" y="10" fill="#10b981" font-size="20" font-weight="700" font-family="system-ui,sans-serif">📷</text><text x="78" y="10" fill="#6ee7b7" font-size="16" font-weight="700" font-family="system-ui,sans-serif" letter-spacing="0.5">COMPOSITION</text><circle cx="215" cy="8" r="2.5" fill="#475569" opacity="0.6"/><rect x="245" y="-10" width="145" height="36" rx="18" fill="#f59e0b" opacity="0.15"/><text x="257" y="10" fill="#fbbf24" font-size="20" font-weight="700" font-family="system-ui,sans-serif">✨</text><text x="285" y="10" fill="#fde68a" font-size="16" font-weight="700" font-family="system-ui,sans-serif" letter-spacing="0.5">PHOTOREAL</text></g></g></svg>
