<svg xmlns="http://www.w3.org/2000/svg" viewBox="0 0 1200 600" role="img" aria-labelledby="heroTitle"><title id="heroTitle">Room 3D Model Workflow - Wireframe to Photorealistic Render</title><defs><linearGradient id="bg" x1="0" y1="0" x2="1" y2="1"><stop offset="0" stop-color="#0f172a"/><stop offset=".5" stop-color="#1e293b"/><stop offset="1" stop-color="#334155"/></linearGradient><pattern id="grid" width="40" height="40" patternUnits="userSpaceOnUse"><path d="M40 0L0 0 0 40" fill="none" stroke="#475569" stroke-width=".5" opacity=".3"/></pattern><linearGradient id="accent" x1="0" y1="0" x2="1" y2="0"><stop offset="0" stop-color="#06b6d4"/><stop offset="1" stop-color="#a855f7"/></linearGradient><linearGradient id="wire" x1="0" y1="0" x2="0" y2="1"><stop offset="0" stop-color="#06b6d4" stop-opacity=".8"/><stop offset="1" stop-color="#0891b2" stop-opacity=".4"/></linearGradient><pattern id="wood" width="100" height="20" patternUnits="userSpaceOnUse"><rect width="100" height="20" fill="#8b4513"/><path d="M0 5Q25 3 50 5T100 5" stroke="#654321" stroke-width=".5" fill="none" opacity=".6"/></pattern><pattern id="fabric" width="4" height="4" patternUnits="userSpaceOnUse"><rect width="4" height="4" fill="#e5e7eb"/><circle cx="2" cy="2" r=".5" fill="#d1d5db"/></pattern></defs><rect width="1200" height="600" fill="url(#bg)"/><rect width="1200" height="600" fill="url(#grid)"/><line x1="600" y1="80" x2="600" y2="520" stroke="url(#accent)" stroke-width="3" opacity=".8"/><g transform="translate(100 140)"><text x="200" y="-50" fill="#06b6d4" font-size="18" font-weight="700" font-family="system-ui,sans-serif" text-anchor="middle">WIREFRAME MODEL</text><path d="M50 80h300v220H50zM50 300h300l50 40H0zM50 80L0 120v220l50-40zM350 80l50 40v220l-50-40zM50 80h300l50 40H0z" fill="none" stroke="url(#wire)" stroke-width="2"/><rect x="120" y="120" width="160" height="120" fill="none" stroke="#06b6d4" stroke-width="2.5" opacity=".7"/><path d="M200 120v120M120 180h160" stroke="#06b6d4" stroke-width="1.5"/><g transform="translate(80 260)"><path d="M0 0h60l10 10H-10zM0 0V-40h60V0" fill="none" stroke="#0891b2" stroke-width="1.5"/><path d="M0 0l-5 30M60 0l5 30M-10 10l-5 30M70 10l5 30" stroke="#0891b2" stroke-width="1.5"/></g><g transform="translate(220 270)"><ellipse cx="30" rx="40" ry="15" fill="none" stroke="#0891b2" stroke-width="1.5"/><path d="M-5 0l-3 35M65 0l3 35M15-10l-3 35M45-10l3 35" stroke="#0891b2" stroke-width="1.5"/></g><circle cx="50" cy="80" r="3" fill="#06b6d4" opacity=".8"/><circle cx="350" cy="80" r="3" fill="#06b6d4" opacity=".8"/></g><g transform="translate(650 140)"><text x="200" y="-50" fill="#a855f7" font-size="18" font-weight="700" font-family="system-ui,sans-serif" text-anchor="middle">PHOTOREALISTIC RENDER</text><path d="M50 80h300v220H50z" fill="#f1f5f9" stroke="#cbd5e1"/><path d="M50 300h300l50 40H0z" fill="url(#wood)" stroke="#8b4513"/><path d="M50 80L0 120v220l50-40z" fill="#e2e8f0" stroke="#cbd5e1"/><path d="M350 80l50 40v220l-50-40z" fill="#f8fafc" stroke="#cbd5e1"/><path d="M50 80h300l50 40H0z" fill="#fff" stroke="#e2e8f0"/><rect x="120" y="120" width="160" height="120" fill="#87ceeb" opacity=".9"/><rect x="120" y="180" width="160" height="60" fill="#b0e0e6" opacity=".8"/><rect x="120" y="120" width="160" height="120" fill="none" stroke="#94a3b8" stroke-width="3"/><path d="M200 120v120M120 180h160" stroke="#94a3b8" stroke-width="2.5"/><path d="M200 180l-50 140h100z" fill="url(#accent)" opacity=".15"/><g transform="translate(80 260)"><path d="M0 0h60l10 10H-10z" fill="url(#fabric)" stroke="#9ca3af"/><path d="M0 0h60l10 10H-10z" fill="#000" opacity=".1"/><path d="M0 0V-40h60V0" fill="url(#fabric)" stroke="#9ca3af"/><path d="M0 0V-40h10v40z" fill="#000" opacity=".15"/><path d="M0 0l-5 30M60 0l5 30M-10 10l-5 30M70 10l5 30" stroke="#4b5563" stroke-width="2.5"/></g><g transform="translate(220 270)"><ellipse cx="30" rx="40" ry="15" fill="#8b4513" stroke="#654321"/><ellipse cx="30" rx="35" ry="12" fill="#a0522d" opacity=".6"/><ellipse cx="35" cy="2" rx="30" ry="10" fill="#000" opacity=".1"/><path d="M-5 0l-3 35M65 0l3 35M15-10l-3 35M45-10l3 35" stroke="#6b4423" stroke-width="3" stroke-linecap="round"/></g><ellipse cx="120" cy="338" rx="50" ry="8" fill="#000" opacity=".15"/><ellipse cx="260" cy="338" rx="40" ry="6" fill="#000" opacity=".12"/></g><g transform="translate(580 300)"><path d="M-30 0h60" stroke="url(#accent)" stroke-width="3" stroke-linecap="round"/><path d="M20-8l10 8-10 8" fill="none" stroke="url(#accent)" stroke-width="3" stroke-linecap="round"/></g><g transform="translate(0 540)"><rect x="50" width="1100" height="50" rx="8" fill="#1e293b" opacity=".8"/><rect x="50" width="1100" height="50" rx="8" fill="url(#accent)" opacity=".1"/><g transform="translate(120 25)"><rect x="-80" y="-12" width="160" height="24" rx="12" fill="#0891b2" opacity=".2"/><text y="4" fill="#06b6d4" font-size="12" font-weight="600" font-family="system-ui,sans-serif" text-anchor="middle">Blueprint Import</text></g><g transform="translate(380 25)"><rect x="-70" y="-12" width="140" height="24" rx="12" fill="#8b5cf6" opacity=".2"/><text y="4" fill="#a855f7" font-size="12" font-weight="600" font-family="system-ui,sans-serif" text-anchor="middle">3D Modeling</text></g><g transform="translate(600 25)"><rect x="-60" y="-12" width="120" height="24" rx="12" fill="#0891b2" opacity=".2"/><text y="4" fill="#06b6d4" font-size="12" font-weight="600" font-family="system-ui,sans-serif" text-anchor="middle">Texturing</text></g><g transform="translate(800 25)"><rect x="-55" y="-12" width="110" height="24" rx="12" fill="#8b5cf6" opacity=".2"/><text y="4" fill="#a855f7" font-size="12" font-weight="600" font-family="system-ui,sans-serif" text-anchor="middle">Lighting</text></g><g transform="translate(980 25)"><rect x="-50" y="-12" width="100" height="24" rx="12" fill="#0891b2" opacity=".2"/><text y="4" fill="#06b6d4" font-size="12" font-weight="600" font-family="system-ui,sans-serif" text-anchor="middle">Export</text></g></g><text x="600" y="40" fill="#f1f5f9" font-size="24" font-weight="700" font-family="system-ui,sans-serif" text-anchor="middle" opacity=".9">Professional Room 3D Modeling Pipeline</text></svg>